<?xml version="1.0" encoding="utf-8"?>
<!-- Generator: Adobe Illustrator 23.0.2, SVG Export Plug-In . SVG Version: 6.00 Build 0)  -->
<svg version="1.1" id="Layer_1" xmlns="http://www.w3.org/2000/svg" xmlns:xlink="http://www.w3.org/1999/xlink" x="0px" y="0px"
	 viewBox="0 0 16 16" style="enable-background:new 0 0 16 16;" xml:space="preserve">
<style type="text/css">
	.st0{fill:#FFFFFF;}
	.st1{fill:#AB007C;}
	.st2{fill:#DD0124;}
	.st3{fill:#024D95;}
	.st4{fill:#0093A8;}
</style>
<path d="M14,4.5V14c0,1.1-0.9,2-2,2H4c-1.1,0-2-0.9-2-2V2c0-1.1,0.9-2,2-2h5.5L14,4.5z M11,4.5c-0.8,0-1.5-0.7-1.5-1.5V1H4
	C3.4,1,3,1.4,3,2v12c0,0.6,0.4,1,1,1h8c0.6,0,1-0.4,1-1V4.5H11z"/>
<g>
	<g id="Layer_1-2">
		<path class="st0" d="M6.4,11c-0.1,0-0.3-0.1-0.4-0.2L3.5,8.3c-0.2-0.2-0.2-0.5,0-0.7L6,5c0.2-0.2,0.5-0.2,0.7,0l2.5,2.5
			c0.2,0.2,0.2,0.5,0,0.7l-2.5,2.5C6.6,10.9,6.5,11,6.4,11z M4.6,7.9l1.8,1.8l1.8-1.8L6.4,6.1L4.6,7.9z"/>
		<path class="st0" d="M9.6,11c-0.1,0-0.3-0.1-0.4-0.2L6.7,8.4C6.6,8.3,6.6,8.1,6.6,8s0.1-0.3,0.2-0.4l2.5-2.5
			c0.2-0.2,0.5-0.2,0.7,0l2.5,2.5c0.2,0.2,0.2,0.5,0,0.7L10,10.9C9.9,11,9.8,11,9.6,11z M7.8,8l1.8,1.8L11.4,8L9.6,6.2L7.8,8z
			 M7.5,7.6L7.5,7.6C7.5,7.6,7.5,7.6,7.5,7.6z"/>
		<path class="st0" d="M9.6,14.2C9.6,14.2,9.6,14.2,9.6,14.2c-0.1,0-0.3-0.1-0.4-0.2l-2.5-2.5c-0.2-0.2-0.2-0.5,0-0.7l2.5-2.5
			c0.1-0.1,0.2-0.2,0.4-0.2c0,0,0,0,0,0c0.1,0,0.3,0.1,0.4,0.2l2.5,2.5c0.2,0.2,0.2,0.5,0,0.7L10,14C9.9,14.1,9.7,14.2,9.6,14.2z
			 M9.9,13.3L9.9,13.3C9.9,13.3,9.9,13.3,9.9,13.3z M7.8,11.1L9.6,13l1.8-1.8L9.6,9.3L7.8,11.1z M10,9L10,9C9.9,9,9.9,9,10,9z"/>
		<path class="st0" d="M6.4,14.2c-0.1,0-0.3-0.1-0.4-0.2l-2.5-2.5c-0.2-0.2-0.2-0.5,0-0.7L6,8.2C6.2,8,6.6,8,6.8,8.2l2.5,2.5
			c0.2,0.2,0.2,0.5,0,0.7L6.8,14C6.7,14.1,6.5,14.2,6.4,14.2z M4.6,11.1L6.4,13l1.8-1.8L6.4,9.3L4.6,11.1z"/>
		<path class="st1" d="M6.4,14.1c-0.1,0-0.2,0-0.3-0.1l-2.5-2.5c-0.1-0.1-0.1-0.2-0.1-0.3c0-0.1,0-0.2,0.1-0.3l2.5-2.5
			c0.1-0.1,0.2-0.1,0.3-0.1c0.1,0,0.2,0,0.3,0.1l2.5,2.5c0.1,0.1,0.1,0.2,0.1,0.3c0,0.1,0,0.2-0.1,0.3L6.7,14
			C6.6,14.1,6.5,14.1,6.4,14.1z M4.5,11.1l1.9,1.9l1.9-1.9L6.4,9.2L4.5,11.1z"/>
		<path class="st2" d="M9.6,11c-0.1,0-0.2,0-0.3-0.1L6.8,8.3C6.7,8.2,6.6,8.1,6.6,8c0-0.1,0-0.2,0.1-0.3l2.5-2.5C9.4,5,9.5,5,9.6,5
			C9.7,5,9.9,5,10,5.1l2.5,2.5c0.1,0.1,0.1,0.2,0.1,0.3c0,0.1,0,0.2-0.1,0.3L10,10.8C9.9,10.9,9.7,11,9.6,11z M7.7,8l1.9,1.9L11.5,8
			L9.6,6.1L7.7,8z M7.4,8.3C7.4,8.3,7.4,8.3,7.4,8.3L7.4,8.3L7.4,8.3z"/>
		<path class="st3" d="M6.4,10.9c-0.1,0-0.2,0-0.3-0.1L3.5,8.2c-0.2-0.2-0.2-0.5,0-0.7l2.5-2.5c0.2-0.2,0.5-0.2,0.7,0l2.5,2.5
			c0.2,0.2,0.2,0.5,0,0.7l-2.5,2.5C6.6,10.8,6.5,10.9,6.4,10.9z M4.5,7.9l1.9,1.9l1.9-1.9L6.4,6L4.5,7.9z"/>
		<path class="st4" d="M9.6,14.1c-0.1,0-0.2,0-0.3-0.1l-2.5-2.5c-0.1-0.1-0.1-0.2-0.1-0.3c0-0.1,0-0.2,0.1-0.3l2.5-2.5
			c0.2-0.2,0.5-0.2,0.7,0l2.5,2.5c0.1,0.1,0.1,0.2,0.1,0.3c0,0.1,0,0.2-0.1,0.3L10,14C9.9,14.1,9.8,14.1,9.6,14.1z M7.7,11.2
			l1.9,1.9l1.9-1.9L9.6,9.2L7.7,11.2z M11.8,10.9C11.8,10.9,11.8,10.9,11.8,10.9L11.8,10.9z M7.4,10.9L7.4,10.9
			C7.4,10.9,7.4,10.9,7.4,10.9z"/>
		<path class="st4" d="M9.6,14.1c-0.1,0-0.2,0-0.3-0.1l-2.5-2.5c-0.1-0.1-0.1-0.2-0.1-0.3c0-0.1,0-0.2,0.1-0.3l2.5-2.5
			c0.2-0.2,0.5-0.2,0.7,0l2.5,2.5c0.2,0.2,0.2,0.5,0,0.7L10,14C9.9,14.1,9.8,14.1,9.6,14.1z M7.7,11.1l1.9,1.9l1.9-1.9L9.6,9.2
			L7.7,11.1z"/>
		<path class="st1" d="M6.4,14.1c-0.1,0-0.2,0-0.3-0.1l-2.5-2.5c-0.1-0.1-0.1-0.2-0.1-0.3c0-0.1,0-0.2,0.1-0.3l2.5-2.5
			c0.1-0.1,0.2-0.1,0.3-0.1c0.1,0,0.2,0,0.3,0.1l2.5,2.5c0.1,0.1,0.1,0.2,0.1,0.3c0,0.1,0,0.2-0.1,0.3L6.7,14
			C6.6,14.1,6.5,14.1,6.4,14.1z M4.5,11.1l1.9,1.9l1.9-1.9L6.4,9.2L4.5,11.1z"/>
		<path class="st3" d="M6.4,10.9c-0.1,0-0.2,0-0.3-0.1L3.6,8.2c-0.2-0.2-0.2-0.5,0-0.7l2.5-2.5c0.2-0.2,0.5-0.2,0.7,0l2.5,2.5
			c0.2,0.2,0.2,0.5,0,0.7l-2.5,2.5C6.6,10.8,6.5,10.9,6.4,10.9z M4.5,7.9l1.9,1.9l1.9-1.9L6.4,6L4.5,7.9z"/>
		<path class="st2" d="M9.6,11c-0.1,0-0.2,0-0.3-0.1L6.8,8.3C6.7,8.2,6.7,8.1,6.7,8c0-0.1,0-0.2,0.1-0.3l2.5-2.5C9.5,5,9.8,5,10,5.1
			l2.5,2.5c0.1,0.1,0.1,0.2,0.1,0.3c0,0.1,0,0.2-0.1,0.3L10,10.8C9.9,10.9,9.8,11,9.6,11z M7.7,8l1.9,1.9L11.5,8L9.6,6.1L7.7,8z"/>
	</g>
</g>
</svg>
