<?xml version="1.0" encoding="UTF-8" standalone="no"?>
<!-- Generator: Adobe Illustrator 18.1.1, SVG Export Plug-In . SVG Version: 6.00 Build 0)  -->

<svg
   version="1.1"
   id="Layer_1"
   x="0px"
   y="0px"
   viewBox="0 0 132240 26190.008"
   enable-background="new 0 0 480 450"
   xml:space="preserve"
   width="132240"
   height="26190.008"
   xmlns="http://www.w3.org/2000/svg"
   xmlns:svg="http://www.w3.org/2000/svg"><defs
   id="defs20" />
<g
   id="g15"
   transform="translate(-48960,-88605)">
	<path
   fill="#b4191d"
   d="m 331.4,231.9 c 0,-12.4 -9.7,-22.1 -22.5,-22.1 -12.8,0 -22.5,9.7 -22.5,22.1 0,12.8 9.7,22.8 22.5,22.8 12.8,0 22.5,-10 22.5,-22.8 z m -8.3,0 c 0,8.9 -6.4,15.7 -14.3,15.7 -7.9,0 -14.3,-6.8 -14.3,-15.7 0,-8.6 6.4,-15.1 14.3,-15.1 7.9,0 14.3,6.6 14.3,15.1 z m -38.2,-9.3 c 0,-8.2 -6.5,-12.8 -14.2,-12.8 -10.4,0 -14.4,8.7 -14.4,8.7 l 5.5,3.8 c 0,0 3.1,-5.4 8.2,-5.4 3.7,0 6.6,2.1 6.6,6.2 0,9.4 -20.8,11.4 -20.8,27.1 0,1.2 0.2,2.4 0.4,3.9 h 30.1 V 242 h -6.9 v 5.5 h -15 c 0.3,-8.9 20.5,-11.4 20.5,-24.9 z"
   id="path9" />
	<path
   fill="#81b13e"
   d="m 377.5,210 c 0,-7.3 -5.6,-13 -13.3,-13 -7.7,0 -13.3,5.7 -13.3,13 0,7.5 5.6,13.3 13.3,13.3 7.7,-0.1 13.3,-5.9 13.3,-13.3 z m -6.6,0 c 0,4.4 -3.1,7.8 -6.8,7.8 -3.7,0 -6.8,-3.3 -6.8,-7.8 0,-4.3 3.1,-7.5 6.8,-7.5 3.8,0 6.8,3.2 6.8,7.5 z m -39.2,12.8 H 350 v -8 h -5.3 v 3 h -6.4 c 0.2,-3.9 11.1,-5.6 11.1,-13.1 0,-5.4 -4.6,-7.8 -8.7,-7.8 -6.6,0 -8.9,5.5 -8.9,5.5 l 4.3,2.9 c 0,0 1.7,-2.9 4.1,-2.9 1.3,0 2.7,0.6 2.7,2.6 0,4.3 -11.4,5.6 -11.4,14.9 -0.1,1 0,1.9 0.2,2.9 z"
   id="path11" />
	<path
   fill="#3e95d4"
   d="m 256.8,231.8 c 0,-1.5 -0.1,-2.8 -0.4,-4.1 -1.8,-10.5 -10.4,-18.2 -21.9,-18.2 -13,0 -22.8,9.9 -22.8,22.5 0,13 9.8,23.1 22.8,23.1 4.1,0 7.8,-1 11,-2.8 l -4,-6.4 c -2.1,1.3 -4.5,2 -7.1,2 -7.9,0 -14.5,-6.9 -14.5,-16 0,-8.7 6.5,-15.3 14.5,-15.3 7.9,0 14.5,6.6 14.5,15.3 0,0.9 -0.2,2.6 -0.2,2.6 -0.2,1.4 -1.1,2.5 -2.4,2.5 -1.3,0 -2.4,-1.1 -2.5,-2.4 V 230 c 0,-5.2 -3.1,-8.1 -8.8,-8.1 -5,0 -8.4,2.6 -8.4,2.6 l 2.1,4.1 c 0,0 3,-1.4 5.7,-1.4 1.5,0 2.8,0.6 2.8,2.2 V 230 H 236 c -3.1,0 -10.6,0.8 -10.6,6.7 0,4 3,6.1 6.5,6.1 4.2,0 5.8,-3.3 5.8,-3.3 h 0.1 c 0,0 0,0 0,0 1.7,3.9 6.1,4.3 8.5,4.3 6.2,-0.2 10.5,-4.8 10.5,-12 z m -19.5,2.2 c 0,1.7 -1.7,4.1 -3.4,4.1 -1.5,0 -2.2,-0.8 -2.2,-2.1 0,-1.8 2.7,-2.5 4.9,-2.5 h 0.6 v 0.5 z m -26.5,4.3 c 0,-9.7 -5.4,-16.3 -13.9,-16.3 -6.5,0 -9.4,4.6 -9.4,4.6 h -0.1 c 0,0 0.1,-1.1 0.1,-2.6 V 203.4 H 175 v 5.8 h 4.8 v 44.7 h 7.3 V 252 c 0,-1.2 -0.1,-2.3 -0.1,-2.3 h 0.1 c 0,0 2.5,5 9.3,5 8.3,0 14.4,-6.4 14.4,-16.4 z m -7.8,0.2 c 0,6.2 -3.6,9.7 -7.9,9.7 -5.2,0 -7.7,-4.8 -7.7,-9.6 0,-6.9 3.8,-9.9 7.8,-9.9 4.6,0 7.8,3.8 7.8,9.8 z m -31.9,-9.9 h 3.2 v -5.8 H 155 c -0.2,1.2 -0.4,2.2 -0.4,3.3 0,11.6 14.2,13.2 14.2,18.6 0,2.6 -1.8,3.3 -3.4,3.3 -3,0 -5.1,-3.6 -5.1,-3.6 l -5.3,3.7 c 0,0 2.9,6.8 11.1,6.8 5.2,0 10.9,-3 10.9,-9.7 0,-9.3 -13.6,-11.6 -13.8,-16.5 h 7.9 z m -34.3,25.3 h 16.8 v -5.8 h -4.5 v -25.4 h -12.6 v 5.8 h 4.8 v 19.6 h -4.5 z M 150,207.7 c 0,-2.8 -2.2,-5 -5.1,-5 -3,0 -5.1,2.2 -5.1,5 0,2.9 2.2,5.1 5.1,5.1 2.9,0 5.1,-2.2 5.1,-5.1 z m -48,46.2 h 32.9 V 240.7 H 128 v 6.7 h -12.8 v -37.7 h 5.3 v -6.4 H 102 v 6.4 h 5.2 V 248 H 102 Z"
   id="path13" />
</g>
</svg>
