<?xml version="1.0" encoding="UTF-8" standalone="no"?>
<!-- Created with Inkscape (http://www.inkscape.org/) -->

<svg
   width="130.67621mm"
   height="42.72707mm"
   viewBox="0 0 130.67621 42.72707"
   version="1.1"
   id="svg5"
   xml:space="preserve"
   inkscape:version="1.2.2 (732a01da63, 2022-12-09)"
   sodipodi:docname="logoUminhoPdts.svg"
   xmlns:inkscape="http://www.inkscape.org/namespaces/inkscape"
   xmlns:sodipodi="http://sodipodi.sourceforge.net/DTD/sodipodi-0.dtd"
   xmlns="http://www.w3.org/2000/svg"
   xmlns:svg="http://www.w3.org/2000/svg"><sodipodi:namedview
     id="namedview7"
     pagecolor="#ffffff"
     bordercolor="#000000"
     borderopacity="0.25"
     inkscape:showpageshadow="2"
     inkscape:pageopacity="0.0"
     inkscape:pagecheckerboard="0"
     inkscape:deskcolor="#d1d1d1"
     inkscape:document-units="mm"
     showgrid="false"
     inkscape:zoom="2.0510461"
     inkscape:cx="230.8578"
     inkscape:cy="164.55018"
     inkscape:window-width="1920"
     inkscape:window-height="1001"
     inkscape:window-x="-9"
     inkscape:window-y="-9"
     inkscape:window-maximized="1"
     inkscape:current-layer="layer1" /><defs
     id="defs2"><style
       id="style1294">.cls-1{fill:#1d1d1b;}</style></defs><g
     inkscape:label="Layer 1"
     inkscape:groupmode="layer"
     id="layer1"
     transform="translate(-37.985707,-126.40674)"><g
       id="g1364"
       transform="matrix(0.26458333,0,0,0.26458333,37.985707,126.40674)"><path
         class="cls-1"
         d="m 0.11,0 h 209.2 c 0,1 -0.07,2 -0.07,3 V 104.49 H 0 V 2.48 C 0,1.65 0.08,0.83 0.11,0 Z M 48.3,71.34 c 0,3.72 0,7.45 0,11.18 0,2.09 0.74,3.58 3,3.75 2.1,0.15 3.41,-1.16 3.43,-3.62 0.06,-7.45 0,-14.91 0,-22.36 0,-2.08 -0.84,-3.55 -3.17,-3.62 -2.1,-0.06 -3.25,1.21 -3.28,3.73 -0.01,3.65 0.02,7.29 0.02,10.94 z M 49,48.73 A 10.84,10.84 0 0 0 46.69,46.4 C 40.5,42.79 34.2,39.31 27.91,35.81 c -2.4,-1.33 -4,-1 -5,0.93 -1,1.93 -0.48,3.4 2,4.82 3.44,2 6.92,3.88 10.37,5.85 2.88,1.63 5.7,3.37 8.62,4.93 2.57,1.4 5.1,-0.03 5.1,-3.61 z M 80.43,39 c 0,-3.48 -2.47,-4.85 -5,-3.4 -6.4,3.63 -12.76,7.34 -19.12,11 -2.13,1.24 -2.72,2.93 -1.77,4.73 0.95,1.8 2.92,2.21 5,1 Q 69.16,46.78 78.72,41 a 6.77,6.77 0 0 0 1.71,-2 z M 54.77,28.86 c 0,-1.91 0.08,-3.82 0,-5.71 -0.08,-1.89 -1.27,-3.3 -3.33,-3.24 a 3,3 0 0 0 -3.06,3.23 c -0.08,3.72 -0.08,7.45 0,11.17 a 2.87,2.87 0 0 0 3,3.16 c 2.18,0.07 3.22,-1.14 3.34,-3.15 0.14,-1.82 0.05,-3.64 0.05,-5.46 z M 38.55,63.09 c -0.12,-3 -2.51,-4.67 -4.61,-3.59 -3.38,1.75 -6.66,3.69 -9.95,5.61 -1.86,1.08 -2.09,2.78 -1.11,4.49 a 2.86,2.86 0 0 0 4.25,1.17 c 3.18,-1.78 6.4,-3.5 9.49,-5.42 a 8.4,8.4 0 0 0 1.93,-2.26 z m 29,-4.8 c -1.26,1.43 -2.52,2.29 -2.84,3.42 a 3.55,3.55 0 0 0 1.07,3.13 82.55,82.55 0 0 0 9.91,6.09 C 76.6,71.4 78.5,70.87 79.4,70.12 80.09,69.54 80.48,67.2 80.07,66.89 76.14,64 72,61.31 67.54,58.29 Z"
         id="path1300" /><path
         class="cls-1"
         d="m 7.13,147.34 v 9.06 a 5.76,5.76 0 0 0 0.16,1.66 1.4,1.4 0 0 0 1.45,0.95 1.55,1.55 0 0 0 1.36,-0.66 3.68,3.68 0 0 0 0.35,-1.95 v -9.06 h 3.43 v 9.06 a 10.69,10.69 0 0 1 -0.07,1.38 3.85,3.85 0 0 1 -1.61,2.72 5.79,5.79 0 0 1 -3.52,0.95 5.05,5.05 0 0 1 -4,-1.5 3.72,3.72 0 0 1 -0.92,-2 A 15.29,15.29 0 0 1 3.7,156 v -8.66 z"
         id="path1302" /><path
         class="cls-1"
         d="m 19.23,151.41 v 1.11 a 5,5 0 0 1 3.28,-1.45 2.26,2.26 0 0 1 1.48,0.53 2.72,2.72 0 0 1 0.87,1.89 12.05,12.05 0 0 1 0.06,1.41 v 6.27 H 21.8 v -6.27 c 0,-0.88 -0.34,-1.32 -1,-1.32 a 2.36,2.36 0 0 0 -1.53,0.76 v 6.83 h -3.15 v -9.76 z"
         id="path1304" /><path
         class="cls-1"
         d="m 30.1,147.34 v 2.78 H 27 v -2.78 z m 0,4.07 v 9.76 H 27 v -9.76 z"
         id="path1306" /><path
         class="cls-1"
         d="m 40.46,151.41 -2.89,9.76 H 34.09 L 31,151.41 h 3.41 l 1,3.9 a 26.86,26.86 0 0 1 0.61,3.42 28.37,28.37 0 0 1 0.53,-3.61 l 0.76,-3.71 z"
         id="path1308" /><path
         class="cls-1"
         d="m 47,158.08 2.88,0.24 a 4,4 0 0 1 -0.73,1.65 4.31,4.31 0 0 1 -3.63,1.48 4.37,4.37 0 0 1 -3.65,-1.45 5.48,5.48 0 0 1 -1.06,-3.53 6,6 0 0 1 1,-3.74 3.79,3.79 0 0 1 1.68,-1.26 5.32,5.32 0 0 1 1.95,-0.36 4.1,4.1 0 0 1 3.12,1.22 4.37,4.37 0 0 1 1.15,2.4 c 0,0.23 0.09,1 0.13,2.25 H 44.1 a 3.69,3.69 0 0 0 0.24,1.56 1.34,1.34 0 0 0 1.25,0.71 1.32,1.32 0 0 0 1.41,-1.17 z m -2.87,-2.84 H 47 a 3,3 0 0 0 -0.21,-1.13 1.32,1.32 0 0 0 -2.35,-0.15 2.47,2.47 0 0 0 -0.34,1.28 z"
         id="path1310" /><path
         class="cls-1"
         d="m 58.35,151.16 v 3 a 2.84,2.84 0 0 0 -0.69,-0.09 3.2,3.2 0 0 0 -2,0.65 3.26,3.26 0 0 0 -0.92,1.12 v 5.37 h -3.09 v -9.76 h 3.11 v 0.88 c 0,0 0,0.08 0,0.22 a 1.77,1.77 0 0 0 0,0.24 c 0,0.1 0,0.33 0,0.69 a 5,5 0 0 1 0.93,-1.32 3.12,3.12 0 0 1 2.21,-1 z"
         id="path1312" /><path
         class="cls-1"
         d="M 66.85,153.79 64,154 c -0.06,-0.59 -0.35,-0.88 -0.88,-0.88 a 1,1 0 0 0 -0.74,0.3 0.84,0.84 0 0 0 -0.18,0.54 0.9,0.9 0 0 0 0.59,0.86 17.57,17.57 0 0 0 1.72,0.38 c 1.81,0.36 2.71,1.34 2.71,2.93 a 3,3 0 0 1 -1.1,2.41 4.66,4.66 0 0 1 -3.1,0.9 q -3.36,0 -3.63,-3 l 2.9,-0.19 c 0.08,0.73 0.43,1.1 1.06,1.1 a 0.91,0.91 0 0 0 0.82,-0.4 0.82,0.82 0 0 0 0.14,-0.48 c 0,-0.5 -0.39,-0.83 -1.17,-1 -0.78,-0.17 -1.42,-0.29 -1.72,-0.38 a 3,3 0 0 1 -0.83,-0.39 2.69,2.69 0 0 1 -1.24,-2.44 3,3 0 0 1 1.13,-2.42 4,4 0 0 1 2.64,-0.82 3.79,3.79 0 0 1 3.18,1.21 3.14,3.14 0 0 1 0.55,1.56 z"
         id="path1314" /><path
         class="cls-1"
         d="m 72,147.34 v 2.78 h -3.14 v -2.78 z m 0,4.07 v 9.76 h -3.14 v -9.76 z"
         id="path1316" /><path
         class="cls-1"
         d="m 82.81,147.34 v 13.83 h -2.72 l -0.15,-1 a 3.44,3.44 0 0 1 -2.59,1.28 3.21,3.21 0 0 1 -3,-1.8 6.73,6.73 0 0 1 -0.76,-3.36 6.45,6.45 0 0 1 0.86,-3.54 4,4 0 0 1 1.13,-1.15 2.93,2.93 0 0 1 4.09,0.73 v -5 z m -3.11,7.12 a 1.59,1.59 0 0 0 -1.37,-0.87 1.08,1.08 0 0 0 -0.88,0.44 3.65,3.65 0 0 0 -0.57,2.25 3.42,3.42 0 0 0 0.85,2.7 1,1 0 0 0 0.65,0.23 1.53,1.53 0 0 0 1.32,-0.9 z"
         id="path1318" /><path
         class="cls-1"
         d="m 87.86,154.46 -3,-0.37 a 3.34,3.34 0 0 1 0.8,-1.8 6,6 0 0 1 7.1,-0.12 2.49,2.49 0 0 1 0.67,1.48 c 0,0.36 0,0.84 0,1.46 v 2.5 a 27.92,27.92 0 0 0 0.14,3.56 h -3 l -0.12,-0.8 a 4.57,4.57 0 0 1 -2.91,1.08 3.43,3.43 0 0 1 -2.24,-0.7 2.53,2.53 0 0 1 -0.91,-2 2.84,2.84 0 0 1 1.4,-2.49 14.12,14.12 0 0 1 4.29,-1.39 l 0.24,-0.05 v -0.24 a 1.39,1.39 0 0 0 -0.21,-0.91 1.4,1.4 0 0 0 -2.28,0.82 z m 2.49,2.29 a 7.22,7.22 0 0 0 -1.59,0.42 c -0.71,0.26 -1.06,0.67 -1.06,1.23 a 0.71,0.71 0 0 0 0.3,0.6 1,1 0 0 0 0.62,0.18 3,3 0 0 0 1.7,-0.67 z"
         id="path1320" /><path
         class="cls-1"
         d="m 104.28,147.34 v 13.83 h -2.71 l -0.16,-1 a 3.44,3.44 0 0 1 -2.59,1.28 3.24,3.24 0 0 1 -3,-1.8 6.73,6.73 0 0 1 -0.76,-3.36 6.53,6.53 0 0 1 0.86,-3.54 4,4 0 0 1 1.14,-1.15 2.92,2.92 0 0 1 4.08,0.73 v -5 z m -3.11,7.12 a 1.58,1.58 0 0 0 -1.37,-0.87 1.08,1.08 0 0 0 -0.88,0.44 3.65,3.65 0 0 0 -0.57,2.25 3.46,3.46 0 0 0 0.85,2.7 1,1 0 0 0 0.65,0.23 1.5,1.5 0 0 0 1.32,-0.9 z"
         id="path1322" /><path
         class="cls-1"
         d="m 112.06,158.08 2.89,0.24 a 4.17,4.17 0 0 1 -0.73,1.65 5.17,5.17 0 0 1 -7.25,0 5.48,5.48 0 0 1 -1.07,-3.53 6,6 0 0 1 1,-3.74 3.79,3.79 0 0 1 1.68,-1.26 5.26,5.26 0 0 1 1.94,-0.36 4.14,4.14 0 0 1 3.13,1.22 4.44,4.44 0 0 1 1.15,2.4 c 0,0.23 0.08,1 0.13,2.25 h -5.73 a 3.53,3.53 0 0 0 0.24,1.56 1.42,1.42 0 0 0 2.62,-0.42 z m -2.86,-2.84 h 2.86 a 2.82,2.82 0 0 0 -0.2,-1.13 1.26,1.26 0 0 0 -1.24,-0.8 1.23,1.23 0 0 0 -1.11,0.65 2.47,2.47 0 0 0 -0.31,1.28 z"
         id="path1324" /><path
         class="cls-1"
         d="m 130.69,147.34 v 13.83 H 128 l -0.15,-1 a 3.44,3.44 0 0 1 -2.59,1.28 3.21,3.21 0 0 1 -3,-1.8 6.73,6.73 0 0 1 -0.76,-3.36 6.45,6.45 0 0 1 0.86,-3.54 4,4 0 0 1 1.13,-1.15 2.93,2.93 0 0 1 4.09,0.73 v -5 z m -3.11,7.12 a 1.59,1.59 0 0 0 -1.37,-0.87 1.08,1.08 0 0 0 -0.88,0.44 3.65,3.65 0 0 0 -0.57,2.25 3.42,3.42 0 0 0 0.85,2.7 1,1 0 0 0 0.65,0.23 1.53,1.53 0 0 0 1.32,-0.9 z"
         id="path1326" /><path
         class="cls-1"
         d="m 137.06,151.07 a 4.25,4.25 0 0 1 3.88,2 5.94,5.94 0 0 1 0.8,3.26 6.66,6.66 0 0 1 -0.49,2.53 3.82,3.82 0 0 1 -1.52,1.88 5.4,5.4 0 0 1 -2.87,0.74 4.11,4.11 0 0 1 -3.39,-1.44 5.72,5.72 0 0 1 -1.15,-3.72 5.26,5.26 0 0 1 1.55,-4.11 4.58,4.58 0 0 1 3.19,-1.14 z m 0,2.24 c -1,0 -1.44,1 -1.44,2.9 0,1.9 0.49,3 1.45,3 a 1,1 0 0 0 1,-0.52 5.3,5.3 0 0 0 0.49,-2.63 c -0.08,-1.83 -0.56,-2.75 -1.56,-2.75 z"
         id="path1328" /><path
         class="cls-1"
         d="m 163.71,147.34 v 13.83 h -3.43 V 152 151.42 c 0,0 0,-0.32 0,-0.92 v -0.59 c 0,0.2 -0.14,0.61 -0.29,1.24 l -0.12,0.53 -2.27,9.49 h -2.69 L 152.69,152 c -0.19,-0.86 -0.33,-1.55 -0.42,-2.09 v 11.26 h -3.43 v -13.83 h 5.45 l 1.69,7 a 17.77,17.77 0 0 1 0.42,2.32 c 0.06,-0.48 0.17,-1.16 0.34,-2 v -0.29 l 1.43,-7 z"
         id="path1330" /><path
         class="cls-1"
         d="m 169.17,147.34 v 2.78 h -3.12 v -2.78 z m 0,4.07 v 9.76 h -3.12 v -9.76 z"
         id="path1332" /><path
         class="cls-1"
         d="m 174.35,151.41 v 1.11 a 5,5 0 0 1 3.29,-1.45 2.28,2.28 0 0 1 1.48,0.53 2.72,2.72 0 0 1 0.86,1.89 12.05,12.05 0 0 1 0.06,1.41 v 6.27 h -3.11 v -6.27 q 0,-1.32 -1.05,-1.32 a 2.36,2.36 0 0 0 -1.53,0.76 v 6.83 h -3.11 v -9.76 z"
         id="path1334" /><path
         class="cls-1"
         d="m 185.23,147.34 v 5.22 a 3.76,3.76 0 0 1 1.05,-0.85 4.31,4.31 0 0 1 2.1,-0.64 2.47,2.47 0 0 1 1.54,0.5 2.84,2.84 0 0 1 0.93,2.05 9.78,9.78 0 0 1 0,1.07 v 6.48 h -3.11 v -6.25 a 1.73,1.73 0 0 0 -0.15,-0.82 1,1 0 0 0 -0.93,-0.52 2,2 0 0 0 -1.47,0.78 v 6.81 h -3.11 v -13.83 z"
         id="path1336" /><path
         class="cls-1"
         d="m 197.27,151.07 a 4.26,4.26 0 0 1 3.88,2 6,6 0 0 1 0.8,3.26 6.67,6.67 0 0 1 -0.5,2.53 3.82,3.82 0 0 1 -1.52,1.88 5.37,5.37 0 0 1 -2.87,0.74 4.11,4.11 0 0 1 -3.39,-1.44 5.72,5.72 0 0 1 -1.15,-3.72 5.26,5.26 0 0 1 1.55,-4.11 4.59,4.59 0 0 1 3.2,-1.14 z m 0,2.24 c -1,0 -1.44,1 -1.44,2.9 0,1.9 0.48,3 1.45,3 a 1,1 0 0 0 1,-0.52 5.43,5.43 0 0 0 0.48,-2.63 c -0.08,-1.83 -0.56,-2.75 -1.53,-2.75 z"
         id="path1338" /></g><text
       xml:space="preserve"
       style="font-style:normal;font-variant:normal;font-weight:bold;font-stretch:normal;font-size:25.4px;font-family:Arial;-inkscape-font-specification:'Arial Bold';fill:#000000;stroke-width:0.0529167"
       x="99.716385"
       y="153.63806"
       id="text1887"><tspan
         sodipodi:role="line"
         id="tspan1885"
         style="font-style:normal;font-variant:normal;font-weight:bold;font-stretch:normal;font-size:25.4px;font-family:sans-serif;-inkscape-font-specification:'sans-serif Bold';stroke-width:0.0529167"
         x="99.716385"
         y="153.63806">PDTs</tspan></text></g></svg>
