<svg xmlns="http://www.w3.org/2000/svg" width="307.3" height="43.6" viewBox="0 0 307.3 43.6"><g id="Layer_2" data-name="Layer 2"><g id="Layer_1-2" data-name="Layer 1"><g><g><path d="M2.6,35.7l1.4.2.9.7a3.3,3.3,0,0,1,.5,1.2,9.7,9.7,0,0,1,.1,1.8,10.9,10.9,0,0,1-.1,1.9,3.3,3.3,0,0,1-.5,1.2,2.4,2.4,0,0,1-.9.6l-1.4.2H0l.3-.6H2.6a2.3,2.3,0,0,0,1.3-.3,2.6,2.6,0,0,0,.7-1,10.3,10.3,0,0,0,.2-2,9.2,9.2,0,0,0-.2-1.9,2,2,0,0,0-.7-1,2.3,2.3,0,0,0-1.3-.3H.3L0,35.8H2.6Zm-1.9.1v7.6H0V35.8Z" style="fill: #54c0e8"></path><path d="M9.3,35.8v7.6H8.6V35.8Z" style="fill: #54c0e8"></path><path d="M15.4,35.7h2.1v.5h-2l-1.1.2a1.2,1.2,0,0,0-.7.5,2.3,2.3,0,0,0-.4,1,10.4,10.4,0,0,0,.1,3.5,1.7,1.7,0,0,0,.6,1.1,1.6,1.6,0,0,0,1.1.3h.8l.7-.4.6-.4v.4l-.6.6-.8.4-1,.2a2,2,0,0,1-1.4-.5c-.4-.2-.6-.7-.8-1.3a6.5,6.5,0,0,1-.3-2.2,6.7,6.7,0,0,1,.3-2.3,2.7,2.7,0,0,1,1-1.3A4.2,4.2,0,0,1,15.4,35.7ZM17.7,39v4.4h-.5L17,42.3V39Z" style="fill: #54c0e8"></path><path d="M21.5,35.8v7.6h-.7V35.8Z" style="fill: #54c0e8"></path><path d="M29.9,35.8v.7H24.1v-.7Zm-2.5,0v7.6h-.8V35.8Z" style="fill: #54c0e8"></path><path d="M34.6,35.8h.3l2.5,7.4h-.7L34.5,37a49450112819368.8,49450112819368.8,0,0,1-.2-.6H34a32966741879584.6,32966741879584.6,0,0,1-.2.6l-2.1,6.4h-.8L33.5,36a.1.1,0,0,1,.1-.1c0-.1.1-.1.2-.1Zm1.5,4.5v.6H32.2v-.6Z" style="fill: #54c0e8"></path><path d="M40.6,35.8V42c0,.3,0,.5.2.6l.6.2h2.8v.6h-3a1.2,1.2,0,0,1-1-.4,1.3,1.3,0,0,1-.4-.9V35.8Z" style="fill: #54c0e8"></path><path d="M53,35.7h2v.6H53a2.3,2.3,0,0,0-1.3.3,1.6,1.6,0,0,0-.7,1.1,9.2,9.2,0,0,0-.2,1.9,10.3,10.3,0,0,0,.2,2,1.4,1.4,0,0,0,.7,1,2.3,2.3,0,0,0,1.3.3h2v.5l-.9.2H53a4.5,4.5,0,0,1-1.8-.3,2.5,2.5,0,0,1-.9-1.3,6.7,6.7,0,0,1-.3-2.3,7.5,7.5,0,0,1,.3-2.3,1.9,1.9,0,0,1,.9-1.2A3.2,3.2,0,0,1,53,35.7Z" style="fill: #54c0e8"></path><path d="M60.4,35.7l1.3.2a1.5,1.5,0,0,1,.9.6,2.9,2.9,0,0,1,.5,1.3,9,9,0,0,1,.2,1.8,9.2,9.2,0,0,1-.2,1.9,2.4,2.4,0,0,1-1.4,1.9l-1.3.2L59,43.4a2.2,2.2,0,0,1-.9-.7,3.3,3.3,0,0,1-.5-1.2,9.2,9.2,0,0,1-.2-1.9,9,9,0,0,1,.2-1.8,5,5,0,0,1,.5-1.3,1.5,1.5,0,0,1,.9-.6Zm0,.6a2.3,2.3,0,0,0-1.3.3,1.6,1.6,0,0,0-.7,1.1,9.2,9.2,0,0,0-.2,1.9,10.3,10.3,0,0,0,.2,2,1.4,1.4,0,0,0,.7,1,2.3,2.3,0,0,0,1.3.3,2.1,2.1,0,0,0,1.2-.3,1.4,1.4,0,0,0,.7-1,5.9,5.9,0,0,0,.2-2,5.3,5.3,0,0,0-.2-1.9,1.6,1.6,0,0,0-.7-1.1A2.1,2.1,0,0,0,60.4,36.3Z" style="fill: #54c0e8"></path><path d="M72,35.8v7.3a.3.3,0,0,1-.3.3h-1v-.2l-2.9-5.8-.3-.4a.8.8,0,0,0-.2-.5H67V37a.6.6,0,0,1,.1.4v6h-.8V36.1a.3.3,0,0,1,.3-.3h1c.1,0,.1.1.1.2l2.9,5.6c0,.2.1.3.2.5l.3.5h.2V35.8Z" style="fill: #54c0e8"></path><path d="M77.3,35.7h2.2v.5H76.1c-.2.1-.3.2-.3.4a1.9,1.9,0,0,0-.1.8,2.2,2.2,0,0,0,.2,1,1.5,1.5,0,0,0,.8.4l1.6.3a1.8,1.8,0,0,1,1.2.7,2.6,2.6,0,0,1,.3,1.4,3.7,3.7,0,0,1-.1,1.1l-.5.6-.7.3H75.1v-.6h3.3a.7.7,0,0,0,.5-.4c.2-.2.2-.5.2-.9a1.9,1.9,0,0,0-.1-.8l-.3-.4-.6-.2-1.7-.4a1.7,1.7,0,0,1-1.1-.6,2.9,2.9,0,0,1-.3-1.4,3.4,3.4,0,0,1,.1-1.1.9.9,0,0,1,.4-.6l.8-.2Z" style="fill: #54c0e8"></path><path d="M87.8,35.8v.7H82v-.7Zm-2.5,0v7.6h-.8V35.8Z" style="fill: #54c0e8"></path><path d="M92.9,35.7l1.4.2a2.7,2.7,0,0,1,.8.7,3.9,3.9,0,0,1,.2,1.3,3.6,3.6,0,0,1-.2,1.1c0,.2-.2.4-.4.6l-.8.3h0l.4.2.3.4c.1.1.1.3.2.5l.8,2.4h-.8L94.1,41a1,1,0,0,0-.5-.6c-.1-.2-.4-.2-.6-.2H90.5v-.6h3.4l.5-.5a2.2,2.2,0,0,0,.2-1,2,2,0,0,0-.2-.9.8.8,0,0,0-.5-.5H90.5v-.6h2.5Zm-1.8.1v7.6h-.7V35.8Z" style="fill: #54c0e8"></path><path d="M103.8,35.8v4.7a4.2,4.2,0,0,1-.3,1.8,2,2,0,0,1-.8,1,4.4,4.4,0,0,1-3.2,0,2.2,2.2,0,0,1-.9-1,7.4,7.4,0,0,1-.2-1.8V35.8h.7v4.7a4.6,4.6,0,0,0,.2,1.4,1.2,1.2,0,0,0,.6.8l1.2.2,1.1-.2a1.9,1.9,0,0,0,.7-.8,4.6,4.6,0,0,0,.2-1.4V35.8Z" style="fill: #54c0e8"></path><path d="M109.7,35.7h2v.6h-1.9a2.3,2.3,0,0,0-1.3.3,3,3,0,0,0-.7,1.1,9.2,9.2,0,0,0-.2,1.9,10.3,10.3,0,0,0,.2,2,2.6,2.6,0,0,0,.7,1,2.3,2.3,0,0,0,1.3.3h2.1v.5l-.9.2h-1.2a4,4,0,0,1-1.7-.3,2.2,2.2,0,0,1-1-1.3,12.1,12.1,0,0,1-.2-2.3,14,14,0,0,1,.2-2.3,1.8,1.8,0,0,1,1-1.2A2.9,2.9,0,0,1,109.7,35.7Z" style="fill: #54c0e8"></path><path d="M119.6,35.8v.7h-5.8v-.7Zm-2.5,0v7.6h-.7V35.8Z" style="fill: #54c0e8"></path><path d="M122.9,35.8v7.6h-.7V35.8Z" style="fill: #54c0e8"></path><path d="M128.9,35.7l1.4.2a2.4,2.4,0,0,1,.9.6,5,5,0,0,1,.5,1.3,9.7,9.7,0,0,1,.1,1.8,10.3,10.3,0,0,1-.1,1.9,3.3,3.3,0,0,1-.5,1.2l-.9.7-1.4.2-1.4-.2-.9-.7a3.3,3.3,0,0,1-.5-1.2,10.3,10.3,0,0,1-.1-1.9,9.7,9.7,0,0,1,.1-1.8,5,5,0,0,1,.5-1.3l.9-.6Zm0,.6a2.5,2.5,0,0,0-1.3.3,3,3,0,0,0-.7,1.1,9.2,9.2,0,0,0-.2,1.9,10.3,10.3,0,0,0,.2,2,2.6,2.6,0,0,0,.7,1,3,3,0,0,0,2.6,0,2.6,2.6,0,0,0,.7-1,10.3,10.3,0,0,0,.2-2,9.2,9.2,0,0,0-.2-1.9,3,3,0,0,0-.7-1.1A2.5,2.5,0,0,0,128.9,36.3Z" style="fill: #54c0e8"></path><path d="M140.5,35.8v7.3a.3.3,0,0,1-.3.3h-1c0-.1-.1-.1-.1-.2l-2.9-5.8c-.1-.1-.1-.3-.2-.4a1.7,1.7,0,0,1-.2-.5h-.2v6.9h-.7V36.1a.3.3,0,0,1,.3-.3h.7c.1,0,.2,0,.2.1l.2.2,2.8,5.6c.1.2.2.3.2.5l.3.5h.2V35.8Z" style="fill: #54c0e8"></path><path d="M150.2,35.7l1.3.2a1.9,1.9,0,0,1,.8.7,2.4,2.4,0,0,1,.2,1.3,3.7,3.7,0,0,1-.1,1.1l-.5.6-.8.3h0l.4.2.3.4a.8.8,0,0,1,.2.5l.8,2.4H152l-.7-2.4a.9.9,0,0,0-.4-.6.8.8,0,0,0-.7-.2h-2.5v-.6h3.3a.8.8,0,0,0,.5-.5c.2-.2.2-.5.2-1s0-.7-.2-.9a.6.6,0,0,0-.5-.5h-3.3l-.2-.6h2.6Zm-1.9.1v7.6h-.7V35.8Z" style="fill: #54c0e8"></path><path d="M157,35.8h3.2v.5h-3.1l-.6.2a1.4,1.4,0,0,0-.2.6V42a.8.8,0,0,0,.2.6l.6.2h3.1v.6H157a1.5,1.5,0,0,1-1-.3,1.2,1.2,0,0,1-.4-.9V37.1a1,1,0,0,1,.4-.9A1.2,1.2,0,0,1,157,35.8Zm-1.2,3.3h3.9v.6h-3.9Z" style="fill: #54c0e8"></path><path d="M168.5,35.8l-2.4,7.4c0,.1-.1.1-.1.2h-1.2c0-.1-.1-.1-.1-.2l-2.4-7.4h.7l2,6.2a.8.8,0,0,1,.1.4.8.8,0,0,1,.1.4h.3c.1-.1.1-.2.2-.4a.8.8,0,0,1,.1-.4l1.9-6.2Z" style="fill: #54c0e8"></path><path d="M173.6,35.7l1.4.2a1.5,1.5,0,0,1,.9.6,5,5,0,0,1,.5,1.3,9.7,9.7,0,0,1,.1,1.8,10.3,10.3,0,0,1-.1,1.9,3.3,3.3,0,0,1-.5,1.2,2.2,2.2,0,0,1-.9.7l-1.4.2-1.4-.2-.9-.7a3.3,3.3,0,0,1-.5-1.2,10.3,10.3,0,0,1-.1-1.9,9.7,9.7,0,0,1,.1-1.8,5,5,0,0,1,.5-1.3,2.4,2.4,0,0,1,.9-.6Zm0,.6a2.5,2.5,0,0,0-1.3.3,3,3,0,0,0-.7,1.1,9.2,9.2,0,0,0-.2,1.9,10.3,10.3,0,0,0,.2,2,2.6,2.6,0,0,0,.7,1,3,3,0,0,0,2.6,0,2.6,2.6,0,0,0,.7-1,10.3,10.3,0,0,0,.2-2,9.2,9.2,0,0,0-.2-1.9,3,3,0,0,0-.7-1.1A2.5,2.5,0,0,0,173.6,36.3Z" style="fill: #54c0e8"></path><path d="M180.3,35.8V42c0,.3,0,.5.2.6l.6.2h2.8v.6h-3a1.2,1.2,0,0,1-1-.4,1.2,1.2,0,0,1-.3-.9V35.8Z" style="fill: #54c0e8"></path><path d="M191.6,35.8v4.7a4.2,4.2,0,0,1-.3,1.8,1.6,1.6,0,0,1-.8,1,3.5,3.5,0,0,1-1.6.3,3.8,3.8,0,0,1-1.6-.3,1.6,1.6,0,0,1-.8-1,4.2,4.2,0,0,1-.3-1.8V35.8h.7v4.7a4.6,4.6,0,0,0,.2,1.4,1.2,1.2,0,0,0,.6.8l1.2.2,1.2-.2a1.7,1.7,0,0,0,.6-.8,4.6,4.6,0,0,0,.2-1.4V35.8Z" style="fill: #54c0e8"></path><path d="M199.9,35.8v.7h-5.8v-.7Zm-2.5,0v7.6h-.8V35.8Z" style="fill: #54c0e8"></path><path d="M203.2,35.8v7.6h-.7V35.8Z" style="fill: #54c0e8"></path><path d="M209.2,35.7l1.4.2a2.4,2.4,0,0,1,.9.6,5,5,0,0,1,.5,1.3,9.7,9.7,0,0,1,.1,1.8,10.3,10.3,0,0,1-.1,1.9,3.3,3.3,0,0,1-.5,1.2l-.9.7-1.4.2-1.4-.2a2.2,2.2,0,0,1-.9-.7,3.3,3.3,0,0,1-.5-1.2,10.3,10.3,0,0,1-.1-1.9,9.7,9.7,0,0,1,.1-1.8,5,5,0,0,1,.5-1.3,1.5,1.5,0,0,1,.9-.6Zm0,.6a2.5,2.5,0,0,0-1.3.3,3,3,0,0,0-.7,1.1,9.2,9.2,0,0,0-.2,1.9,10.3,10.3,0,0,0,.2,2,2.6,2.6,0,0,0,.7,1,3,3,0,0,0,2.6,0,2.6,2.6,0,0,0,.7-1,10.3,10.3,0,0,0,.2-2,9.2,9.2,0,0,0-.2-1.9,3,3,0,0,0-.7-1.1A2.5,2.5,0,0,0,209.2,36.3Z" style="fill: #54c0e8"></path><path d="M220.8,35.8v7.3a.3.3,0,0,1-.3.3h-1c0-.1-.1-.1-.1-.2l-2.9-5.8c-.1-.1-.1-.3-.2-.4a1.7,1.7,0,0,1-.2-.5h-.2v6.9h-.7V36.1a.3.3,0,0,1,.3-.3h.7c.1,0,.2,0,.2.1s.1.1.2.2l2.8,5.6c.1.2.2.3.2.5l.3.5h.2V35.8Z" style="fill: #54c0e8"></path></g><path d="M8.4,11.8l8.9,9-2,2L5.9,13.3a1,1,0,0,1,0-1.6L8.4,9.2,9,9h4.6a.9.9,0,0,0,.8-.7V3.7a.8.8,0,0,0-.8-.7H2.9V22.5H0V.1H13a1.9,1.9,0,0,1,1.3.5l2.5,2.5a2.1,2.1,0,0,1,.5,1.3V7.6a1.8,1.8,0,0,1-.5,1.2l-2.5,2.5a1.9,1.9,0,0,1-1.3.5Z" style="fill: #54c0e8"></path><path d="M24.1,12.8a1.9,1.9,0,0,1-1.3-.5L20.4,9.9a1.7,1.7,0,0,1-.5-1.3V4.3a1.3,1.3,0,0,1,.5-1.2L22.8.6A1.9,1.9,0,0,1,24.1.1H36.2V3H23.5a.7.7,0,0,0-.7.7V9.2a.7.7,0,0,0,.7.7h8.9v2.9Zm0,9.7a1.9,1.9,0,0,1-1.3-.5l-2.4-2.4a1.7,1.7,0,0,1-.5-1.3v-2a1.1,1.1,0,0,1,.4-.9l2.5-2.6v6.1a.7.7,0,0,0,.7.7H36.2v2.9Z" style="fill: #54c0e8"></path><path d="M41.5,22.2,39,19.7a1.1,1.1,0,0,1-.2-.6V.1h2.9V19.6L53.1,8.2V.1H56V7.6a4,4,0,0,1-1.2,2.9L43.1,22.2a1.3,1.3,0,0,1-.8.3A1.1,1.1,0,0,1,41.5,22.2Z" style="fill: #54c0e8"></path><path d="M77.2,17.2H74.3V3.7a.7.7,0,0,0-.7-.7H62.3a.7.7,0,0,0-.7.7V18.9a.7.7,0,0,0,.7.7H83.8v2.9H62.9a1.8,1.8,0,0,1-1.2-.5l-2.5-2.5a1.5,1.5,0,0,1-.5-1.3V4.4a1.7,1.7,0,0,1,.5-1.3L61.7.6A1.8,1.8,0,0,1,62.9.1H73a1.8,1.8,0,0,1,1.2.5l2.5,2.5a1.7,1.7,0,0,1,.5,1.3Zm-2.9-2.8L71.7,17l-.7.2H68.3a1.5,1.5,0,0,1-1.3-.5l-2.5-2.5A1.8,1.8,0,0,1,64,13V9.7a2.1,2.1,0,0,1,.5-1.3L67,5.9a1.9,1.9,0,0,1,1.3-.5H71a.8.8,0,0,1,.7.3l2.6,2.6H67.6a.7.7,0,0,0-.7.7v4.7a.8.8,0,0,0,.7.7Z" style="fill: #fff"></path><g><path d="M89,22.4a1.7,1.7,0,0,1-1.2-.5l-2.5-2.5a1.7,1.7,0,0,1-.5-1.3V4.3A1.7,1.7,0,0,1,85.3,3L87.8.5A1.7,1.7,0,0,1,89,0h11.5a1.1,1.1,0,0,1,1.1,1.1V4a1.9,1.9,0,0,1-.7,1.6L96.7,9.8l-2-2,4.9-4.9H88.4a.7.7,0,0,0-.7.7V18.8a.7.7,0,0,0,.7.7h13.2v2.9Z" style="fill: #54c0e8"></path><path d="M121.6,3a1.8,1.8,0,0,1,.6,1.3V18.1a1.8,1.8,0,0,1-.6,1.3l-2.4,2.5a2.1,2.1,0,0,1-1.3.5h-9.5a1.9,1.9,0,0,1-1.3-.5l-2.5-2.5a2.1,2.1,0,0,1-.5-1.3V4.3a2.1,2.1,0,0,1,.5-1.3L107.1.5a1.9,1.9,0,0,1,1.3-.5h9.5a2.1,2.1,0,0,1,1.3.5Zm-2.4.6a.7.7,0,0,0-.7-.7H107.8a.7.7,0,0,0-.8.7V18.8a.7.7,0,0,0,.8.7h10.7a.7.7,0,0,0,.7-.7Z" style="fill: #54c0e8"></path><path d="M125,22.4V3.4a.9.9,0,0,1,.3-.6L127.8.3a1.1,1.1,0,0,1,.8-.3,1.1,1.1,0,0,1,.7.3l9.8,9.7L137,12l-9-9.1V22.4Zm15.1,0V0H143V22.4Z" style="fill: #54c0e8"></path><path d="M151.8,13.2,146,7.4a1.5,1.5,0,0,1-.4-1.1v-2a1.7,1.7,0,0,1,.5-1.3L148.6.5a1.8,1.8,0,0,1,1.2-.5h12.1V2.9H149.2a.7.7,0,0,0-.7.7V5.9l5.3,5.3Zm-6.1,9.2V19.5h12.7a.7.7,0,0,0,.8-.7V16.5l-5.4-5.3,2-2,5.8,5.8a1.6,1.6,0,0,1,.5,1.1v2a2.1,2.1,0,0,1-.5,1.3l-2.5,2.5a1.9,1.9,0,0,1-1.3.5Z" style="fill: #54c0e8"></path><path d="M164,0h18V2.9H164Zm8,6.4,2.5-2.5V22.4h-2.9V7.4A1.3,1.3,0,0,1,172,6.4Z" style="fill: #54c0e8"></path><path d="M192.1,11.7l8.9,8.9-1.9,2.1-9.5-9.5a1.2,1.2,0,0,1-.4-.8,1.2,1.2,0,0,1,.4-.8l2.5-2.5.6-.3h4.7a.7.7,0,0,0,.7-.7V3.6a.7.7,0,0,0-.7-.7H186.6V22.4h-2.9V0h13.1a1.8,1.8,0,0,1,1.2.5L200.5,3a2.1,2.1,0,0,1,.5,1.3V7.4a1.9,1.9,0,0,1-.5,1.3L198,11.2a1.8,1.8,0,0,1-1.2.5Z" style="fill: #54c0e8"></path><path d="M207.9,22.4a1.9,1.9,0,0,1-1.3-.5l-2.5-2.5a2.1,2.1,0,0,1-.5-1.3V0h2.9V18.8a.7.7,0,0,0,.7.7h10a.7.7,0,0,0,.7-.7V0h2.9V18.1a1.7,1.7,0,0,1-.5,1.3l-2.5,2.5a1.8,1.8,0,0,1-1.2.5Z" style="fill: #54c0e8"></path><path d="M228,22.4a1.9,1.9,0,0,1-1.3-.5l-2.5-2.5a2.1,2.1,0,0,1-.5-1.3V4.3a2.1,2.1,0,0,1,.5-1.3L226.7.5A1.9,1.9,0,0,1,228,0h11.4a1.1,1.1,0,0,1,1.1,1.1V4a2.1,2.1,0,0,1-.6,1.6l-4.2,4.2-2-2,4.9-4.9H227.3a.7.7,0,0,0-.7.7V18.8a.7.7,0,0,0,.7.7h13.2v2.9Z" style="fill: #54c0e8"></path><path d="M242.4,0h18V2.9h-18Zm8,6.4,2.5-2.5V22.4H250V7.4A1.3,1.3,0,0,1,250.4,6.4Z" style="fill: #54c0e8"></path><path d="M262.6,22.4V0h2.9V22.4Z" style="fill: #54c0e8"></path><path d="M285.9,3a1.7,1.7,0,0,1,.5,1.3V18.1a1.7,1.7,0,0,1-.5,1.3l-2.5,2.5a1.7,1.7,0,0,1-1.2.5h-9.5a1.9,1.9,0,0,1-1.3-.5l-2.5-2.5a2.1,2.1,0,0,1-.5-1.3V4.3a2.1,2.1,0,0,1,.5-1.3L271.4.5a1.9,1.9,0,0,1,1.3-.5h9.5a1.7,1.7,0,0,1,1.2.5Zm-2.4.6a.7.7,0,0,0-.7-.7H272a.7.7,0,0,0-.7.7V18.8a.7.7,0,0,0,.7.7h10.8a.7.7,0,0,0,.7-.7Z" style="fill: #54c0e8"></path><path d="M289.3,22.4V3.4a.9.9,0,0,1,.3-.6L292.1.3a1.1,1.1,0,0,1,.7-.3,1.1,1.1,0,0,1,.8.3l9.7,9.7-2,2-9.1-9.1V22.4Zm15.1,0V0h2.9V22.4Z" style="fill: #54c0e8"></path></g></g></g></g></svg>