<?xml version="1.0" encoding="utf-8"?>
<!-- Generator: Adobe Illustrator 23.0.2, SVG Export Plug-In . SVG Version: 6.00 Build 0)  -->
<svg version="1.1" id="Layer_1" xmlns="http://www.w3.org/2000/svg" xmlns:xlink="http://www.w3.org/1999/xlink" x="0px" y="0px"
	 viewBox="0 0 307.3 43.6" style="enable-background:new 0 0 307.3 43.6;" xml:space="preserve">
<style type="text/css">
	.st0{fill:#041C2B;}
	.st1{fill:#54C0E8;}
	.st2{fill:none;stroke:#041C2B;stroke-width:0.75;stroke-miterlimit:10;}
</style>
<g>
	<g id="Layer_1-2">
		<g>
			<g>
				<path class="st0" d="M2.6,35.7L4,35.9l0.9,0.7c0.2,0.4,0.4,0.8,0.5,1.2c0.1,0.6,0.1,1.2,0.1,1.8c0,0.6,0,1.3-0.1,1.9
					c-0.1,0.4-0.3,0.8-0.5,1.2C4.6,43,4.3,43.2,4,43.3l-1.4,0.2H0l0.3-0.6h2.3c0.5,0,0.9-0.1,1.3-0.3c0.3-0.3,0.5-0.6,0.7-1
					c0.1-0.7,0.2-1.3,0.2-2c0-0.6-0.1-1.3-0.2-1.9c-0.1-0.4-0.4-0.7-0.7-1c-0.4-0.2-0.8-0.3-1.3-0.3H0.3L0,35.8L2.6,35.7L2.6,35.7z
					 M0.7,35.8v7.6H0v-7.6H0.7z"/>
				<path class="st0" d="M9.3,35.8v7.6H8.6v-7.6H9.3z"/>
				<path class="st0" d="M15.4,35.7h2.1v0.5h-2l-1.1,0.2c-0.3,0.1-0.5,0.3-0.7,0.5c-0.2,0.3-0.3,0.6-0.4,1c-0.2,1.2-0.1,2.3,0.1,3.5
					c0.1,0.4,0.3,0.8,0.6,1.1c0.3,0.2,0.7,0.3,1.1,0.3h0.8l0.7-0.4l0.6-0.4v0.4L16.6,43l-0.8,0.4l-1,0.2c-0.5,0-1-0.2-1.4-0.5
					c-0.4-0.2-0.6-0.7-0.8-1.3c-0.2-0.7-0.3-1.5-0.3-2.2c0-0.8,0.1-1.6,0.3-2.3c0.2-0.5,0.5-1,1-1.3C14.2,35.8,14.8,35.7,15.4,35.7z
					 M17.7,39v4.4h-0.5L17,42.3V39H17.7z"/>
				<path class="st0" d="M21.5,35.8v7.6h-0.7v-7.6H21.5z"/>
				<path class="st0" d="M29.9,35.8v0.7h-5.8v-0.7H29.9z M27.4,35.8v7.6h-0.8v-7.6H27.4z"/>
				<path class="st0" d="M36.1,40.3v0.6h-3.9v-0.6H36.1z"/>
				<path class="st0" d="M40.6,35.8V42c0,0.3,0,0.5,0.2,0.6l0.6,0.2h2.8v0.6h-3c-0.4,0-0.7-0.1-1-0.4c-0.2-0.2-0.4-0.6-0.4-0.9v-6.3
					H40.6z"/>
				<path class="st0" d="M53,35.7h2v0.6h-2c-0.5,0-0.9,0.1-1.3,0.3c-0.4,0.3-0.6,0.7-0.7,1.1c-0.1,0.6-0.2,1.3-0.2,1.9
					c0,0.7,0.1,1.3,0.2,2c0.1,0.4,0.3,0.8,0.7,1c0.4,0.2,0.8,0.3,1.3,0.3h2v0.5l-0.9,0.2H53c-0.6,0-1.2-0.1-1.8-0.3
					c-0.4-0.3-0.7-0.8-0.9-1.3c-0.2-0.7-0.3-1.5-0.3-2.3c0-0.8,0.1-1.6,0.3-2.3c0.1-0.5,0.4-0.9,0.9-1.2
					C51.7,35.9,52.4,35.7,53,35.7z"/>
				<path class="st0" d="M60.4,35.7l1.3,0.2c0.4,0.1,0.7,0.3,0.9,0.6c0.3,0.4,0.4,0.8,0.5,1.3c0.1,0.6,0.2,1.2,0.2,1.8
					c0,0.6-0.1,1.3-0.2,1.9c-0.1,0.8-0.6,1.6-1.4,1.9l-1.3,0.2L59,43.4c-0.4-0.2-0.7-0.4-0.9-0.7c-0.2-0.4-0.4-0.8-0.5-1.2
					c-0.1-0.6-0.2-1.3-0.2-1.9c0-0.6,0.1-1.2,0.2-1.8c0.1-0.5,0.3-0.9,0.5-1.3c0.2-0.3,0.5-0.5,0.9-0.6L60.4,35.7z M60.4,36.3
					c-0.5,0-0.9,0.1-1.3,0.3c-0.4,0.3-0.6,0.7-0.7,1.1c-0.1,0.6-0.2,1.3-0.2,1.9c0,0.7,0.1,1.3,0.2,2c0.1,0.4,0.3,0.8,0.7,1
					c0.4,0.2,0.8,0.3,1.3,0.3c0.4,0,0.8-0.1,1.2-0.3c0.4-0.2,0.6-0.6,0.7-1c0.2-0.7,0.2-1.3,0.2-2c0-0.6,0-1.3-0.2-1.9
					c-0.1-0.4-0.3-0.8-0.7-1.1C61.2,36.4,60.8,36.3,60.4,36.3z"/>
				<path class="st0" d="M72,35.8v7.3c0,0.2-0.1,0.3-0.3,0.3l0,0h-1v-0.2l-2.9-5.8L67.5,37c0-0.2-0.1-0.4-0.2-0.5H67V37
					c0.1,0.1,0.1,0.3,0.1,0.4v6h-0.8v-7.3c0-0.2,0.1-0.3,0.3-0.3l0,0h1c0.1,0,0.1,0.1,0.1,0.2l2.9,5.6c0,0.2,0.1,0.3,0.2,0.5
					l0.3,0.5h0.2v-6.8H72z"/>
				<path class="st0" d="M77.3,35.7h2.2v0.5h-3.4c-0.2,0.1-0.3,0.2-0.3,0.4c-0.1,0.3-0.1,0.5-0.1,0.8c0,0.3,0.1,0.7,0.2,1
					c0.2,0.2,0.5,0.4,0.8,0.4l1.6,0.3c0.5,0.1,0.9,0.3,1.2,0.7c0.2,0.4,0.3,0.9,0.3,1.4c0,0.4,0,0.7-0.1,1.1l-0.5,0.6l-0.7,0.3h-3.4
					v-0.6h3.3c0.2,0,0.4-0.2,0.5-0.4c0.2-0.2,0.2-0.5,0.2-0.9c0-0.3,0-0.5-0.1-0.8l-0.3-0.4l-0.6-0.2l-1.7-0.4
					c-0.4-0.1-0.8-0.3-1.1-0.6C75.1,38.5,75,38,75,37.5c0-0.4,0-0.7,0.1-1.1c0-0.2,0.2-0.5,0.4-0.6l0.8-0.2L77.3,35.7z"/>
				<path class="st0" d="M87.8,35.8v0.7H82v-0.7H87.8z M85.3,35.8v7.6h-0.8v-7.6H85.3z"/>
				<path class="st0" d="M92.9,35.7l1.4,0.2c0.3,0.2,0.6,0.4,0.8,0.7c0.1,0.4,0.2,0.9,0.2,1.3c0,0.4-0.1,0.7-0.2,1.1
					c0,0.2-0.2,0.4-0.4,0.6l-0.8,0.3l0,0l0.4,0.2l0.3,0.4c0.1,0.1,0.1,0.3,0.2,0.5l0.8,2.4h-0.8L94.1,41c-0.1-0.3-0.3-0.5-0.5-0.6
					c-0.1-0.2-0.4-0.2-0.6-0.2h-2.5v-0.6h3.4l0.5-0.5c0.1-0.3,0.2-0.7,0.2-1c0-0.3-0.1-0.6-0.2-0.9c-0.1-0.2-0.3-0.4-0.5-0.5h-3.4
					v-0.6H93L92.9,35.7z M91.1,35.8v7.6h-0.7v-7.6H91.1z"/>
				<path class="st0" d="M103.8,35.8v4.7c0,0.6-0.1,1.2-0.3,1.8c-0.1,0.4-0.4,0.8-0.8,1c-1,0.4-2.2,0.4-3.2,0
					c-0.4-0.2-0.7-0.6-0.9-1c-0.1-0.6-0.2-1.2-0.2-1.8v-4.7h0.7v4.7c0,0.5,0.1,0.9,0.2,1.4c0.1,0.3,0.3,0.6,0.6,0.8l1.2,0.2l1.1-0.2
					c0.3-0.2,0.5-0.5,0.7-0.8c0.1-0.5,0.2-0.9,0.2-1.4v-4.7H103.8z"/>
				<path class="st0" d="M109.7,35.7h2v0.6h-1.9c-0.5,0-0.9,0.1-1.3,0.3c-0.3,0.3-0.6,0.7-0.7,1.1c-0.1,0.6-0.2,1.3-0.2,1.9
					c0,0.7,0.1,1.3,0.2,2c0.2,0.4,0.4,0.7,0.7,1c0.4,0.2,0.8,0.3,1.3,0.3h2.1v0.5l-0.9,0.2h-1.2c-0.6,0-1.2-0.1-1.7-0.3
					c-0.5-0.3-0.8-0.8-1-1.3c-0.1-0.8-0.2-1.5-0.2-2.3c0-0.8,0.1-1.5,0.2-2.3c0.1-0.5,0.5-1,1-1.2C108.6,35.9,109.1,35.7,109.7,35.7
					z"/>
				<path class="st0" d="M119.6,35.8v0.7h-5.8v-0.7H119.6z M117.1,35.8v7.6h-0.7v-7.6H117.1z"/>
				<path class="st0" d="M122.9,35.8v7.6h-0.7v-7.6H122.9z"/>
				<path class="st0" d="M128.9,35.7l1.4,0.2c0.3,0.1,0.6,0.3,0.9,0.6c0.2,0.4,0.4,0.8,0.5,1.3c0.1,0.6,0.1,1.2,0.1,1.8
					c0,0.6,0,1.3-0.1,1.9c-0.1,0.4-0.3,0.8-0.5,1.2l-0.9,0.7l-1.4,0.2l-1.4-0.2l-0.9-0.7c-0.2-0.4-0.4-0.8-0.5-1.2
					c-0.1-0.6-0.1-1.3-0.1-1.9c0-0.6,0-1.2,0.1-1.8c0.1-0.5,0.3-0.9,0.5-1.3l0.9-0.6L128.9,35.7z M128.9,36.3
					c-0.5,0-0.9,0.1-1.3,0.3c-0.3,0.3-0.6,0.7-0.7,1.1c-0.1,0.6-0.2,1.3-0.2,1.9c0,0.7,0.1,1.3,0.2,2c0.2,0.4,0.4,0.7,0.7,1
					c0.8,0.4,1.8,0.4,2.6,0c0.3-0.3,0.5-0.6,0.7-1c0.1-0.7,0.2-1.3,0.2-2c0-0.6-0.1-1.3-0.2-1.9c-0.1-0.4-0.4-0.8-0.7-1.1
					C129.8,36.4,129.4,36.3,128.9,36.3z"/>
				<path class="st0" d="M140.5,35.8v7.3c0,0.2-0.1,0.3-0.3,0.3l0,0h-1c0-0.1-0.1-0.1-0.1-0.2l-2.9-5.8c-0.1-0.1-0.1-0.3-0.2-0.4
					c-0.1-0.2-0.2-0.3-0.2-0.5h-0.2v6.9h-0.7v-7.3c0-0.2,0.1-0.3,0.3-0.3l0,0h0.7c0.1,0,0.2,0,0.2,0.1l0.2,0.2l2.8,5.6
					c0.1,0.2,0.2,0.3,0.2,0.5l0.3,0.5h0.2v-6.9H140.5z"/>
				<path class="st0" d="M150.2,35.7l1.3,0.2c0.3,0.2,0.6,0.4,0.8,0.7c0.2,0.4,0.3,0.9,0.2,1.3c0,0.4,0,0.7-0.1,1.1l-0.5,0.6
					l-0.8,0.3l0,0l0.4,0.2l0.3,0.4c0.1,0.1,0.2,0.3,0.2,0.5l0.8,2.4H152l-0.7-2.4c0-0.2-0.2-0.5-0.4-0.6c-0.2-0.2-0.4-0.2-0.7-0.2
					h-2.5v-0.6h3.3c0.2-0.1,0.4-0.3,0.5-0.5c0.2-0.2,0.2-0.5,0.2-1s0-0.7-0.2-0.9c0-0.3-0.2-0.5-0.5-0.5h-3.3l-0.2-0.6h2.6
					L150.2,35.7z M148.3,35.8v7.6h-0.7v-7.6H148.3z"/>
				<path class="st0" d="M157,35.8h3.2v0.5h-3.1l-0.6,0.2c-0.1,0.2-0.2,0.4-0.2,0.6V42c0,0.2,0.1,0.4,0.2,0.6l0.6,0.2h3.1v0.6H157
					c-0.4,0-0.7-0.1-1-0.3c-0.3-0.2-0.4-0.6-0.4-0.9v-5.1c0-0.3,0.1-0.7,0.4-0.9C156.3,35.9,156.6,35.8,157,35.8z M155.8,39.1h3.9
					v0.6h-3.9V39.1z"/>
				<path class="st0" d="M168.5,35.8l-2.4,7.4c0,0.1-0.1,0.1-0.1,0.2h-1.2c0-0.1-0.1-0.1-0.1-0.2l-2.4-7.4h0.7l2,6.2
					c0.1,0.1,0.1,0.3,0.1,0.4c0.1,0.1,0.1,0.3,0.1,0.4h0.3c0.1-0.1,0.1-0.2,0.2-0.4c0-0.1,0-0.3,0.1-0.4l1.9-6.2H168.5z"/>
				<path class="st0" d="M173.6,35.7l1.4,0.2c0.4,0.1,0.7,0.3,0.9,0.6c0.2,0.4,0.4,0.8,0.5,1.3c0.1,0.6,0.1,1.2,0.1,1.8
					c0,0.6,0,1.3-0.1,1.9c-0.1,0.4-0.3,0.8-0.5,1.2c-0.2,0.3-0.5,0.5-0.9,0.7l-1.4,0.2l-1.4-0.2l-0.9-0.7c-0.2-0.4-0.4-0.8-0.5-1.2
					c-0.1-0.6-0.1-1.3-0.1-1.9c0-0.6,0-1.2,0.1-1.8c0.1-0.5,0.3-0.9,0.5-1.3c0.3-0.3,0.6-0.5,0.9-0.6L173.6,35.7z M173.6,36.3
					c-0.5,0-0.9,0.1-1.3,0.3c-0.3,0.3-0.6,0.7-0.7,1.1c-0.1,0.6-0.2,1.3-0.2,1.9c0,0.7,0.1,1.3,0.2,2c0.2,0.4,0.4,0.7,0.7,1
					c0.8,0.4,1.8,0.4,2.6,0c0.3-0.3,0.5-0.6,0.7-1c0.1-0.7,0.2-1.3,0.2-2c0-0.6-0.1-1.3-0.2-1.9c-0.1-0.4-0.4-0.8-0.7-1.1
					C174.5,36.4,174.1,36.3,173.6,36.3z"/>
				<path class="st0" d="M180.3,35.8V42c0,0.3,0,0.5,0.2,0.6l0.6,0.2h2.8v0.6h-3c-0.4,0-0.7-0.1-1-0.4c-0.2-0.2-0.3-0.6-0.3-0.9
					v-6.3H180.3z"/>
				<path class="st0" d="M191.6,35.8v4.7c0,0.6-0.1,1.2-0.3,1.8c-0.1,0.4-0.4,0.8-0.8,1c-0.5,0.2-1.1,0.3-1.6,0.3
					c-0.5,0-1.1-0.1-1.6-0.3c-0.4-0.2-0.7-0.6-0.8-1c-0.2-0.6-0.3-1.2-0.3-1.8v-4.7h0.7v4.7c0,0.5,0.1,0.9,0.2,1.4
					c0.1,0.3,0.3,0.6,0.6,0.8l1.2,0.2l1.2-0.2c0.3-0.2,0.5-0.5,0.6-0.8c0.1-0.5,0.2-0.9,0.2-1.4v-4.7H191.6z"/>
				<path class="st0" d="M199.9,35.8v0.7h-5.8v-0.7H199.9z M197.4,35.8v7.6h-0.8v-7.6H197.4z"/>
				<path class="st0" d="M203.2,35.8v7.6h-0.7v-7.6H203.2z"/>
				<path class="st0" d="M209.2,35.7l1.4,0.2c0.3,0.1,0.6,0.3,0.9,0.6c0.2,0.4,0.4,0.8,0.5,1.3c0.1,0.6,0.1,1.2,0.1,1.8
					c0,0.6,0,1.3-0.1,1.9c-0.1,0.4-0.3,0.8-0.5,1.2l-0.9,0.7l-1.4,0.2l-1.4-0.2c-0.4-0.2-0.7-0.4-0.9-0.7c-0.2-0.4-0.4-0.8-0.5-1.2
					c-0.1-0.6-0.1-1.3-0.1-1.9c0-0.6,0-1.2,0.1-1.8c0.1-0.5,0.3-0.9,0.5-1.3c0.2-0.3,0.5-0.5,0.9-0.6L209.2,35.7z M209.2,36.3
					c-0.5,0-0.9,0.1-1.3,0.3c-0.3,0.3-0.6,0.7-0.7,1.1c-0.1,0.6-0.2,1.3-0.2,1.9c0,0.7,0.1,1.3,0.2,2c0.2,0.4,0.4,0.7,0.7,1
					c0.8,0.4,1.8,0.4,2.6,0c0.3-0.3,0.5-0.6,0.7-1c0.1-0.7,0.2-1.3,0.2-2c0-0.6-0.1-1.3-0.2-1.9c-0.1-0.4-0.4-0.8-0.7-1.1
					C210.1,36.4,209.7,36.3,209.2,36.3z"/>
				<path class="st0" d="M220.8,35.8v7.3c0,0.2-0.1,0.3-0.3,0.3l0,0h-1c0-0.1-0.1-0.1-0.1-0.2l-2.9-5.8c-0.1-0.1-0.1-0.3-0.2-0.4
					c-0.1-0.2-0.2-0.3-0.2-0.5h-0.2v6.9h-0.7v-7.3c0-0.2,0.1-0.3,0.3-0.3l0,0h0.7c0.1,0,0.2,0,0.2,0.1s0.1,0.1,0.2,0.2l2.8,5.6
					c0.1,0.2,0.2,0.3,0.2,0.5l0.3,0.5h0.2v-6.9H220.8z"/>
			</g>
			<path class="st0" d="M8.4,11.8l8.9,9l-2,2l-9.4-9.5c-0.4-0.3-0.5-1-0.2-1.4c0.1-0.1,0.1-0.1,0.2-0.2l2.5-2.5L9,9h4.6
				c0.4,0,0.7-0.3,0.8-0.7V3.7C14.3,3.3,14,3,13.6,3H2.9v19.5H0V0.1h13c0.5,0,0.9,0.2,1.3,0.5l2.5,2.5c0.3,0.4,0.5,0.8,0.5,1.3v3.2
				c0,0.4-0.2,0.9-0.5,1.2l-2.5,2.5c-0.4,0.3-0.8,0.5-1.3,0.5H8.4z"/>
			<path class="st0" d="M24.1,12.8c-0.5,0-0.9-0.2-1.3-0.5l-2.4-2.4c-0.3-0.3-0.5-0.8-0.5-1.3V4.3c-0.1-0.5,0.1-0.9,0.5-1.2l2.4-2.5
				c0.4-0.3,0.8-0.5,1.3-0.5h12.1V3H23.5c-0.4,0-0.7,0.3-0.7,0.7c0,0,0,0,0,0v5.5c0,0.4,0.3,0.7,0.7,0.7l0,0h8.9v2.9L24.1,12.8z
				 M24.1,22.5c-0.5,0-0.9-0.2-1.3-0.5l-2.4-2.4c-0.3-0.3-0.5-0.8-0.5-1.3v-2c0-0.3,0.1-0.7,0.4-0.9l2.5-2.6v6.1
				c0,0.4,0.3,0.7,0.7,0.7h0h12.7v2.9L24.1,22.5z"/>
			<path class="st0" d="M41.5,22.2L39,19.7c-0.1-0.2-0.2-0.4-0.2-0.6v-19h2.9v19.5L53.1,8.2V0.1H56v7.5c0,1.1-0.4,2.1-1.2,2.9
				L43.1,22.2c-0.2,0.2-0.5,0.3-0.8,0.3C42,22.5,41.7,22.4,41.5,22.2z"/>
			<path class="st1" d="M77.2,17.2h-2.9V3.7C74.3,3.3,74,3,73.6,3H62.3c-0.4,0-0.7,0.3-0.7,0.7c0,0,0,0,0,0v15.2
				c0,0.4,0.3,0.7,0.7,0.7l0,0h21.5v2.9H62.9c-0.4,0-0.9-0.2-1.2-0.5l-2.5-2.5c-0.4-0.3-0.6-0.8-0.5-1.3V4.4c0-0.5,0.2-1,0.5-1.3
				l2.5-2.5c0.3-0.3,0.8-0.5,1.2-0.5H73c0.4,0,0.9,0.2,1.2,0.5l2.5,2.5c0.3,0.3,0.5,0.8,0.5,1.3V17.2z M74.3,14.4L71.7,17L71,17.2
				h-2.7c-0.5,0.1-1-0.1-1.3-0.5l-2.5-2.5C64.2,13.9,64,13.4,64,13V9.7c0-0.5,0.2-0.9,0.5-1.3L67,5.9c0.4-0.3,0.8-0.5,1.3-0.5H71
				c0.3,0,0.5,0.1,0.7,0.3l2.6,2.6h-6.7c-0.4,0-0.7,0.3-0.7,0.7v4.7c0,0.4,0.3,0.7,0.7,0.7L74.3,14.4z"/>
			<g>
				<path class="st0" d="M89,22.4c-0.5,0-0.9-0.2-1.2-0.5l-2.5-2.5c-0.3-0.3-0.5-0.8-0.5-1.3V4.3c0-0.5,0.2-1,0.5-1.3l2.5-2.5
					C88.1,0.2,88.5,0,89,0h11.5c0.6,0,1.1,0.5,1.1,1.1V4c0,0.6-0.2,1.2-0.7,1.6l-4.2,4.2l-2-2l4.9-4.9H88.4c-0.4,0-0.7,0.3-0.7,0.7
					v15.2c0,0.4,0.3,0.7,0.7,0.7h13.2v2.9H89z"/>
				<path class="st0" d="M121.6,3c0.4,0.3,0.6,0.8,0.6,1.3v13.8c0,0.5-0.2,1-0.6,1.3l-2.4,2.5c-0.4,0.3-0.8,0.5-1.3,0.5h-9.5
					c-0.5,0-0.9-0.2-1.3-0.5l-2.5-2.5c-0.3-0.4-0.5-0.8-0.5-1.3V4.3c0-0.5,0.2-0.9,0.5-1.3l2.5-2.5c0.4-0.3,0.8-0.5,1.3-0.5h9.5
					c0.5,0,0.9,0.2,1.3,0.5L121.6,3z M119.2,3.6c0-0.4-0.3-0.7-0.7-0.7h-10.7c-0.4-0.1-0.7,0.2-0.8,0.6c0,0,0,0.1,0,0.1v15.2
					c0,0.4,0.3,0.7,0.7,0.7c0,0,0.1,0,0.1,0h10.7c0.4,0,0.7-0.3,0.7-0.7V3.6z"/>
				<path class="st0" d="M125,22.4v-19c0-0.2,0.1-0.4,0.3-0.6l2.5-2.5c0.2-0.2,0.5-0.3,0.8-0.3c0.3,0,0.5,0.1,0.7,0.3l9.8,9.7
					l-2.1,2l-9-9.1v19.5H125z M140.1,22.4V0h2.9v22.4H140.1z"/>
				<path class="st0" d="M151.8,13.2L146,7.4c-0.3-0.3-0.4-0.7-0.4-1.1v-2c0-0.5,0.2-1,0.5-1.3l2.5-2.5c0.3-0.3,0.8-0.5,1.2-0.5
					h12.1v2.9h-12.7c-0.4,0-0.7,0.3-0.7,0.7v2.3l5.3,5.3L151.8,13.2z M145.7,22.4v-2.9h12.7c0.4,0.1,0.7-0.2,0.8-0.6
					c0,0,0-0.1,0-0.1v-2.3l-5.4-5.3l2-2l5.8,5.8c0.3,0.3,0.5,0.7,0.5,1.1v2c0,0.5-0.2,0.9-0.5,1.3l-2.5,2.5
					c-0.4,0.3-0.8,0.5-1.3,0.5H145.7z"/>
				<path class="st0" d="M164,0h18v2.9h-18V0z M172,6.4l2.5-2.5v18.5h-2.9v-15C171.6,7,171.7,6.7,172,6.4z"/>
				<path class="st0" d="M192.1,11.7l8.9,8.9l-1.9,2.1l-9.5-9.5c-0.2-0.2-0.4-0.5-0.4-0.8c0-0.3,0.2-0.6,0.4-0.8l2.5-2.5l0.6-0.3
					h4.7c0.4,0,0.7-0.3,0.7-0.7V3.6c0-0.4-0.3-0.7-0.7-0.7h-10.8v19.5h-2.9V0h13.1c0.4,0,0.9,0.2,1.2,0.5l2.5,2.5
					c0.3,0.4,0.5,0.8,0.5,1.3v3.1c0,0.5-0.2,0.9-0.5,1.3l-2.5,2.5c-0.3,0.3-0.8,0.5-1.2,0.5H192.1z"/>
				<path class="st0" d="M207.9,22.4c-0.5,0-0.9-0.2-1.3-0.5l-2.5-2.5c-0.3-0.4-0.5-0.8-0.5-1.3V0h2.9v18.8c0,0.4,0.3,0.7,0.7,0.7
					h10c0.4,0,0.7-0.3,0.7-0.7V0h2.9v18.1c0,0.5-0.2,1-0.5,1.3l-2.5,2.5c-0.3,0.3-0.8,0.5-1.2,0.5H207.9z"/>
				<path class="st0" d="M228,22.4c-0.5,0-0.9-0.2-1.3-0.5l-2.5-2.5c-0.3-0.4-0.5-0.8-0.5-1.3V4.3c0-0.5,0.2-0.9,0.5-1.3l2.5-2.5
					c0.4-0.3,0.8-0.5,1.3-0.5h11.4c0.6,0,1.1,0.5,1.1,1.1c0,0,0,0,0,0V4c0,0.6-0.2,1.2-0.6,1.6l-4.2,4.2l-2-2l4.9-4.9h-11.3
					c-0.4,0-0.7,0.3-0.7,0.7v15.2c0,0.4,0.3,0.7,0.7,0.7h13.2v2.9H228z"/>
				<path class="st0" d="M242.4,0h18v2.9h-18V0z M250.4,6.4l2.5-2.5v18.5H250v-15C250,7,250.1,6.7,250.4,6.4z"/>
				<path class="st0" d="M262.6,22.4V0h2.9v22.4H262.6z"/>
				<path class="st0" d="M285.9,3c0.3,0.3,0.5,0.8,0.5,1.3v13.8c0,0.5-0.2,1-0.5,1.3l-2.5,2.5c-0.3,0.3-0.7,0.5-1.2,0.5h-9.5
					c-0.5,0-0.9-0.2-1.3-0.5l-2.5-2.5c-0.3-0.4-0.5-0.8-0.5-1.3V4.3c0-0.5,0.2-0.9,0.5-1.3l2.5-2.5c0.4-0.3,0.8-0.5,1.3-0.5h9.5
					c0.5,0,0.9,0.2,1.2,0.5L285.9,3z M283.5,3.6c0-0.4-0.3-0.7-0.7-0.7l0,0H272c-0.4,0-0.7,0.3-0.7,0.7c0,0,0,0,0,0v15.2
					c0,0.4,0.3,0.7,0.7,0.7l0,0h10.8c0.4,0,0.7-0.3,0.7-0.7c0,0,0,0,0,0V3.6z"/>
				<path class="st0" d="M289.3,22.4v-19c0-0.2,0.1-0.4,0.3-0.6l2.5-2.5c0.2-0.2,0.4-0.3,0.7-0.3c0.3,0,0.6,0.1,0.8,0.3l9.7,9.7
					l-2,2l-9.1-9.1v19.5H289.3z M304.4,22.4V0h2.9v22.4H304.4z"/>
			</g>
		</g>
	</g>
</g>
<line class="st2" x1="31.1" y1="43.5" x2="34.2" y2="35.7"/>
<line class="st2" x1="37.2" y1="43.6" x2="34.2" y2="35.7"/>
</svg>
