<svg id="Layer_1" data-name="Layer 1" xmlns="http://www.w3.org/2000/svg" viewBox="0 0 209.24 161.46"><defs><style>.cls-1{fill:#a21a1c;}.cls-2{fill:#878787;}</style></defs><title>UMinho_Logo</title><path class="cls-1" d="M.11,0h209.2c0,1-.07,2-.07,3V104.49H0V2.48C0,1.65.08.83.11,0ZM48.3,71.34c0,3.72,0,7.45,0,11.18,0,2.09.74,3.58,3,3.75,2.1.15,3.41-1.16,3.43-3.62.06-7.45,0-14.91,0-22.36,0-2.08-.84-3.55-3.17-3.62-2.1-.06-3.25,1.21-3.28,3.73C48.27,64.05,48.3,67.69,48.3,71.34ZM49,48.73a10.84,10.84,0,0,0-2.31-2.33C40.5,42.79,34.2,39.31,27.91,35.81c-2.4-1.33-4-1-5,.93s-.48,3.4,2,4.82c3.44,2,6.92,3.88,10.37,5.85,2.88,1.63,5.7,3.37,8.62,4.93C46.47,53.74,49,52.31,49,48.73ZM80.43,39c0-3.48-2.47-4.85-5-3.4-6.4,3.63-12.76,7.34-19.12,11-2.13,1.24-2.72,2.93-1.77,4.73s2.92,2.21,5,1Q69.16,46.78,78.72,41A6.77,6.77,0,0,0,80.43,39ZM54.77,28.86c0-1.91.08-3.82,0-5.71s-1.27-3.3-3.33-3.24a3,3,0,0,0-3.06,3.23c-.08,3.72-.08,7.45,0,11.17a2.87,2.87,0,0,0,3,3.16c2.18.07,3.22-1.14,3.34-3.15C54.86,32.5,54.77,30.68,54.77,28.86ZM38.55,63.09c-.12-3-2.51-4.67-4.61-3.59-3.38,1.75-6.66,3.69-9.95,5.61-1.86,1.08-2.09,2.78-1.11,4.49a2.86,2.86,0,0,0,4.25,1.17c3.18-1.78,6.4-3.5,9.49-5.42A8.4,8.4,0,0,0,38.55,63.09Zm29-4.8c-1.26,1.43-2.52,2.29-2.84,3.42a3.55,3.55,0,0,0,1.07,3.13,82.55,82.55,0,0,0,9.91,6.09c.91.47,2.81-.06,3.71-.81.69-.58,1.08-2.92.67-3.23C76.14,64,72,61.31,67.54,58.29Z"/><path class="cls-2" d="M7.13,147.34v9.06a5.76,5.76,0,0,0,.16,1.66,1.4,1.4,0,0,0,1.45.95,1.55,1.55,0,0,0,1.36-.66,3.68,3.68,0,0,0,.35-1.95v-9.06h3.43v9.06a10.69,10.69,0,0,1-.07,1.38,3.85,3.85,0,0,1-1.61,2.72,5.79,5.79,0,0,1-3.52.95,5.05,5.05,0,0,1-4-1.5,3.72,3.72,0,0,1-.92-2A15.29,15.29,0,0,1,3.7,156v-8.66Z"/><path class="cls-2" d="M19.23,151.41v1.11a5,5,0,0,1,3.28-1.45,2.26,2.26,0,0,1,1.48.53,2.72,2.72,0,0,1,.87,1.89,12.05,12.05,0,0,1,.06,1.41v6.27H21.8V154.9c0-.88-.34-1.32-1-1.32a2.36,2.36,0,0,0-1.53.76v6.83H16.12v-9.76Z"/><path class="cls-2" d="M30.1,147.34v2.78H27v-2.78Zm0,4.07v9.76H27v-9.76Z"/><path class="cls-2" d="M40.46,151.41l-2.89,9.76H34.09L31,151.41h3.41l1,3.9a26.86,26.86,0,0,1,.61,3.42,28.37,28.37,0,0,1,.53-3.61l.76-3.71Z"/><path class="cls-2" d="M47,158.08l2.88.24a4,4,0,0,1-.73,1.65,4.31,4.31,0,0,1-3.63,1.48A4.37,4.37,0,0,1,41.87,160a5.48,5.48,0,0,1-1.06-3.53,6,6,0,0,1,1-3.74,3.79,3.79,0,0,1,1.68-1.26,5.32,5.32,0,0,1,1.95-.36,4.1,4.1,0,0,1,3.12,1.22,4.37,4.37,0,0,1,1.15,2.4c0,.23.09,1,.13,2.25H44.1a3.69,3.69,0,0,0,.24,1.56,1.34,1.34,0,0,0,1.25.71A1.32,1.32,0,0,0,47,158.08Zm-2.87-2.84H47a3,3,0,0,0-.21-1.13,1.32,1.32,0,0,0-2.35-.15A2.47,2.47,0,0,0,44.1,155.24Z"/><path class="cls-2" d="M58.35,151.16v3a2.84,2.84,0,0,0-.69-.09,3.2,3.2,0,0,0-2,.65,3.26,3.26,0,0,0-.92,1.12v5.37H51.65v-9.76h3.11v.88s0,.08,0,.22a1.77,1.77,0,0,0,0,.24c0,.1,0,.33,0,.69a5,5,0,0,1,.93-1.32,3.12,3.12,0,0,1,2.21-1Z"/><path class="cls-2" d="M66.85,153.79,64,154c-.06-.59-.35-.88-.88-.88a1,1,0,0,0-.74.3.84.84,0,0,0-.18.54.9.9,0,0,0,.59.86,17.57,17.57,0,0,0,1.72.38c1.81.36,2.71,1.34,2.71,2.93a3,3,0,0,1-1.1,2.41,4.66,4.66,0,0,1-3.1.9q-3.36,0-3.63-3l2.9-.19c.08.73.43,1.1,1.06,1.1a.91.91,0,0,0,.82-.4.82.82,0,0,0,.14-.48c0-.5-.39-.83-1.17-1s-1.42-.29-1.72-.38a3,3,0,0,1-.83-.39,2.69,2.69,0,0,1-1.24-2.44,3,3,0,0,1,1.13-2.42,4,4,0,0,1,2.64-.82,3.79,3.79,0,0,1,3.18,1.21A3.14,3.14,0,0,1,66.85,153.79Z"/><path class="cls-2" d="M72,147.34v2.78H68.86v-2.78Zm0,4.07v9.76H68.86v-9.76Z"/><path class="cls-2" d="M82.81,147.34v13.83H80.09l-.15-1a3.44,3.44,0,0,1-2.59,1.28,3.21,3.21,0,0,1-3-1.8,6.73,6.73,0,0,1-.76-3.36,6.45,6.45,0,0,1,.86-3.54,4,4,0,0,1,1.13-1.15,2.93,2.93,0,0,1,4.09.73v-5Zm-3.11,7.12a1.59,1.59,0,0,0-1.37-.87,1.08,1.08,0,0,0-.88.44,3.65,3.65,0,0,0-.57,2.25,3.42,3.42,0,0,0,.85,2.7,1,1,0,0,0,.65.23,1.53,1.53,0,0,0,1.32-.9v-3.85Z"/><path class="cls-2" d="M87.86,154.46l-3-.37a3.34,3.34,0,0,1,.8-1.8,6,6,0,0,1,7.1-.12,2.49,2.49,0,0,1,.67,1.48c0,.36,0,.84,0,1.46v2.5a27.92,27.92,0,0,0,.14,3.56h-3l-.12-.8a4.57,4.57,0,0,1-2.91,1.08,3.43,3.43,0,0,1-2.24-.7,2.53,2.53,0,0,1-.91-2,2.84,2.84,0,0,1,1.4-2.49,14.12,14.12,0,0,1,4.29-1.39l.24-.05v-.24a1.39,1.39,0,0,0-.21-.91,1.4,1.4,0,0,0-2.28.82Zm2.49,2.29a7.22,7.22,0,0,0-1.59.42c-.71.26-1.06.67-1.06,1.23A.71.71,0,0,0,88,159a1,1,0,0,0,.62.18,3,3,0,0,0,1.7-.67Z"/><path class="cls-2" d="M104.28,147.34v13.83h-2.71l-.16-1a3.44,3.44,0,0,1-2.59,1.28,3.24,3.24,0,0,1-3-1.8,6.73,6.73,0,0,1-.76-3.36,6.53,6.53,0,0,1,.86-3.54,4,4,0,0,1,1.14-1.15,2.92,2.92,0,0,1,4.08.73v-5Zm-3.11,7.12a1.58,1.58,0,0,0-1.37-.87,1.08,1.08,0,0,0-.88.44,3.65,3.65,0,0,0-.57,2.25,3.46,3.46,0,0,0,.85,2.7,1,1,0,0,0,.65.23,1.5,1.5,0,0,0,1.32-.9v-3.85Z"/><path class="cls-2" d="M112.06,158.08l2.89.24a4.17,4.17,0,0,1-.73,1.65,5.17,5.17,0,0,1-7.25,0,5.48,5.48,0,0,1-1.07-3.53,6,6,0,0,1,1-3.74,3.79,3.79,0,0,1,1.68-1.26,5.26,5.26,0,0,1,1.94-.36,4.14,4.14,0,0,1,3.13,1.22,4.44,4.44,0,0,1,1.15,2.4c0,.23.08,1,.13,2.25H109.2a3.53,3.53,0,0,0,.24,1.56,1.42,1.42,0,0,0,2.62-.42Zm-2.86-2.84h2.86a2.82,2.82,0,0,0-.2-1.13,1.26,1.26,0,0,0-1.24-.8,1.23,1.23,0,0,0-1.11.65A2.47,2.47,0,0,0,109.2,155.24Z"/><path class="cls-2" d="M130.69,147.34v13.83H128l-.15-1a3.44,3.44,0,0,1-2.59,1.28,3.21,3.21,0,0,1-3-1.8,6.73,6.73,0,0,1-.76-3.36,6.45,6.45,0,0,1,.86-3.54,4,4,0,0,1,1.13-1.15,2.93,2.93,0,0,1,4.09.73v-5Zm-3.11,7.12a1.59,1.59,0,0,0-1.37-.87,1.08,1.08,0,0,0-.88.44,3.65,3.65,0,0,0-.57,2.25,3.42,3.42,0,0,0,.85,2.7,1,1,0,0,0,.65.23,1.53,1.53,0,0,0,1.32-.9v-3.85Z"/><path class="cls-2" d="M137.06,151.07a4.25,4.25,0,0,1,3.88,2,5.94,5.94,0,0,1,.8,3.26,6.66,6.66,0,0,1-.49,2.53,3.82,3.82,0,0,1-1.52,1.88,5.4,5.4,0,0,1-2.87.74,4.11,4.11,0,0,1-3.39-1.44,5.72,5.72,0,0,1-1.15-3.72,5.26,5.26,0,0,1,1.55-4.11A4.58,4.58,0,0,1,137.06,151.07Zm0,2.24c-1,0-1.44,1-1.44,2.9s.49,3,1.45,3a1,1,0,0,0,1-.52,5.3,5.3,0,0,0,.49-2.63C138.48,154.23,138,153.31,137,153.31Z"/><path class="cls-2" d="M163.71,147.34v13.83h-3.43V152l0-.58s0-.32,0-.92v-.59c0,.2-.14.61-.29,1.24l-.12.53-2.27,9.49h-2.69L152.69,152c-.19-.86-.33-1.55-.42-2.09v11.26h-3.43V147.34h5.45l1.69,7a17.77,17.77,0,0,1,.42,2.32c.06-.48.17-1.16.34-2l0-.29,1.43-7Z"/><path class="cls-2" d="M169.17,147.34v2.78h-3.12v-2.78Zm0,4.07v9.76h-3.12v-9.76Z"/><path class="cls-2" d="M174.35,151.41v1.11a5,5,0,0,1,3.29-1.45,2.28,2.28,0,0,1,1.48.53,2.72,2.72,0,0,1,.86,1.89,12.05,12.05,0,0,1,.06,1.41v6.27h-3.11V154.9q0-1.32-1.05-1.32a2.36,2.36,0,0,0-1.53.76v6.83h-3.11v-9.76Z"/><path class="cls-2" d="M185.23,147.34v5.22a3.76,3.76,0,0,1,1.05-.85,4.31,4.31,0,0,1,2.1-.64,2.47,2.47,0,0,1,1.54.5,2.84,2.84,0,0,1,.93,2.05,9.78,9.78,0,0,1,0,1.07v6.48h-3.11v-6.25a1.73,1.73,0,0,0-.15-.82,1,1,0,0,0-.93-.52,2,2,0,0,0-1.47.78v6.81h-3.11V147.34Z"/><path class="cls-2" d="M197.27,151.07a4.26,4.26,0,0,1,3.88,2,6,6,0,0,1,.8,3.26,6.67,6.67,0,0,1-.5,2.53,3.82,3.82,0,0,1-1.52,1.88,5.37,5.37,0,0,1-2.87.74,4.11,4.11,0,0,1-3.39-1.44,5.72,5.72,0,0,1-1.15-3.72,5.26,5.26,0,0,1,1.55-4.11A4.59,4.59,0,0,1,197.27,151.07Zm0,2.24c-1,0-1.44,1-1.44,2.9s.48,3,1.45,3a1,1,0,0,0,1-.52,5.43,5.43,0,0,0,.48-2.63C198.68,154.23,198.2,153.31,197.23,153.31Z"/></svg>