<svg id="Layer_1" data-name="Layer 1" xmlns="http://www.w3.org/2000/svg" viewBox="0 0 209.19 161.45"><defs><style>.cls-1{fill:#fff;}</style></defs><title>UMinho_Logo</title><path class="cls-1" d="M0,0H209.19c0,1-.06,2-.06,3V104.49H-.11V2.48C-.11,1.65,0,.83,0,0ZM48.19,71.34c0,3.72,0,7.45,0,11.18,0,2.09.73,3.58,3,3.75,2.1.15,3.41-1.16,3.43-3.62.06-7.45,0-14.91,0-22.36,0-2.08-.84-3.55-3.17-3.62-2.11-.06-3.26,1.21-3.29,3.73C48.16,64.05,48.19,67.69,48.19,71.34Zm.74-22.61a10.84,10.84,0,0,0-2.31-2.33c-6.23-3.61-12.53-7.09-18.82-10.59-2.4-1.33-4-1-5,.93s-.48,3.4,2,4.82c3.45,2,6.93,3.88,10.38,5.85,2.88,1.63,5.7,3.37,8.62,4.93C46.36,53.74,48.93,52.31,48.93,48.73ZM80.32,39c0-3.48-2.47-4.85-5-3.4-6.4,3.63-12.77,7.34-19.13,11-2.13,1.24-2.71,2.93-1.76,4.73s2.92,2.21,5,1Q69,46.78,78.61,41A7.08,7.08,0,0,0,80.32,39ZM54.65,28.86c0-1.91.08-3.82,0-5.71s-1.27-3.3-3.32-3.24a3,3,0,0,0-3.06,3.23c-.08,3.72-.08,7.45,0,11.17a2.88,2.88,0,0,0,3.06,3.16c2.18.07,3.21-1.14,3.34-3.15C54.75,32.5,54.66,30.68,54.65,28.86ZM38.43,63.09c-.11-3-2.51-4.67-4.6-3.59-3.38,1.75-6.66,3.69-9.95,5.61a3,3,0,0,0-1.11,4.49A2.86,2.86,0,0,0,27,70.77c3.17-1.78,6.39-3.5,9.48-5.42A8.22,8.22,0,0,0,38.43,63.09Zm29-4.8c-1.26,1.43-2.52,2.29-2.85,3.42a3.6,3.6,0,0,0,1.07,3.13,82.67,82.67,0,0,0,9.92,6.09c.91.47,2.81-.06,3.7-.81.7-.58,1.09-2.92.67-3.23C76,64,71.91,61.31,67.43,58.29Z"/><path class="cls-1" d="M7,147.34v9.06a5.41,5.41,0,0,0,.16,1.66,1.4,1.4,0,0,0,1.45.95,1.57,1.57,0,0,0,1.36-.66,3.71,3.71,0,0,0,.34-1.95v-9.06h3.44v9.06a12.86,12.86,0,0,1-.07,1.38,3.87,3.87,0,0,1-1.62,2.72,5.78,5.78,0,0,1-3.51.95,5,5,0,0,1-4-1.5,3.74,3.74,0,0,1-.93-2,17.41,17.41,0,0,1-.1-1.94v-8.66Z"/><path class="cls-1" d="M19.12,151.41v1.11a5,5,0,0,1,3.28-1.45,2.28,2.28,0,0,1,1.48.53,2.72,2.72,0,0,1,.86,1.89,12.05,12.05,0,0,1,.06,1.41v6.27H21.69V154.9c0-.88-.35-1.32-1-1.32a2.36,2.36,0,0,0-1.53.76v6.83H16v-9.76Z"/><path class="cls-1" d="M30,147.34v2.78H26.88v-2.78Zm0,4.07v9.76H26.88v-9.76Z"/><path class="cls-1" d="M40.35,151.41l-2.89,9.76H34l-3.14-9.76h3.42l1,3.9a28.75,28.75,0,0,1,.61,3.42,28.12,28.12,0,0,1,.52-3.61l.76-3.71Z"/><path class="cls-1" d="M46.85,158.08l2.89.24A4.17,4.17,0,0,1,49,160a4.33,4.33,0,0,1-3.64,1.48A4.35,4.35,0,0,1,41.76,160a5.48,5.48,0,0,1-1.07-3.53,6.1,6.1,0,0,1,1-3.74,3.87,3.87,0,0,1,1.69-1.26,5.26,5.26,0,0,1,1.94-.36,4.1,4.1,0,0,1,3.12,1.22,4.38,4.38,0,0,1,1.16,2.4c0,.23.08,1,.13,2.25H44a3.65,3.65,0,0,0,.25,1.56,1.42,1.42,0,0,0,2.62-.42ZM44,155.24h2.87a2.82,2.82,0,0,0-.2-1.13,1.26,1.26,0,0,0-1.24-.8,1.23,1.23,0,0,0-1.11.65A2.57,2.57,0,0,0,44,155.24Z"/><path class="cls-1" d="M58.23,151.16v3a2.72,2.72,0,0,0-.69-.09,3.15,3.15,0,0,0-2,.65,3.28,3.28,0,0,0-.93,1.12v5.37H51.53v-9.76h3.11v.88s0,.08,0,.22,0,.15,0,.24,0,.33,0,.69a4.76,4.76,0,0,1,.94-1.32,3.1,3.1,0,0,1,2.21-1Z"/><path class="cls-1" d="M66.73,153.79l-2.85.23c-.06-.59-.36-.88-.89-.88a.93.93,0,0,0-.73.3.79.79,0,0,0-.19.54.89.89,0,0,0,.6.86c.12,0,.69.18,1.71.38,1.81.36,2.72,1.34,2.72,2.93A3,3,0,0,1,66,160.56a4.64,4.64,0,0,1-3.1.9q-3.35,0-3.62-3l2.89-.19c.09.73.44,1.1,1.07,1.1a.92.92,0,0,0,.82-.4.9.9,0,0,0,.14-.48c0-.5-.39-.83-1.17-1s-1.42-.29-1.72-.38a3.21,3.21,0,0,1-.84-.39,2.7,2.7,0,0,1-1.23-2.44,3,3,0,0,1,1.13-2.42,4,4,0,0,1,2.63-.82,3.82,3.82,0,0,1,3.19,1.21A3.14,3.14,0,0,1,66.73,153.79Z"/><path class="cls-1" d="M71.86,147.34v2.78H68.75v-2.78Zm0,4.07v9.76H68.75v-9.76Z"/><path class="cls-1" d="M82.69,147.34v13.83H80l-.15-1a3.46,3.46,0,0,1-2.6,1.28,3.24,3.24,0,0,1-3-1.8,6.84,6.84,0,0,1-.76-3.36,6.53,6.53,0,0,1,.86-3.54,4.16,4.16,0,0,1,1.14-1.15,2.92,2.92,0,0,1,4.08.73v-5Zm-3.11,7.12a1.56,1.56,0,0,0-1.36-.87,1.09,1.09,0,0,0-.89.44,3.73,3.73,0,0,0-.56,2.25,3.42,3.42,0,0,0,.85,2.7.94.94,0,0,0,.65.23,1.5,1.5,0,0,0,1.31-.9v-3.85Z"/><path class="cls-1" d="M87.75,154.46l-3-.37a3.34,3.34,0,0,1,.79-1.8,4.74,4.74,0,0,1,3.62-1.22,4.68,4.68,0,0,1,3.49,1.1,2.43,2.43,0,0,1,.66,1.48,14.31,14.31,0,0,1,0,1.46v2.5a25.47,25.47,0,0,0,.15,3.56h-3l-.12-.8a4.57,4.57,0,0,1-2.91,1.08,3.41,3.41,0,0,1-2.24-.7,2.53,2.53,0,0,1-.91-2,2.83,2.83,0,0,1,1.39-2.49,14.21,14.21,0,0,1,4.3-1.39l.23-.05v-.24a1.4,1.4,0,0,0-.2-.91,1.4,1.4,0,0,0-2.28.82Zm2.48,2.29a7.52,7.52,0,0,0-1.59.42q-1,.39-1,1.23a.72.72,0,0,0,.32.63,1.05,1.05,0,0,0,.62.18,3,3,0,0,0,1.7-.67Z"/><path class="cls-1" d="M104.17,147.34v13.83h-2.72l-.15-1a3.45,3.45,0,0,1-2.59,1.28,3.21,3.21,0,0,1-3-1.8,6.73,6.73,0,0,1-.76-3.36,6.45,6.45,0,0,1,.86-3.54A4,4,0,0,1,97,151.6a2.93,2.93,0,0,1,4.09.73v-5Zm-3.11,7.12a1.59,1.59,0,0,0-1.37-.87,1.08,1.08,0,0,0-.88.44,3.65,3.65,0,0,0-.57,2.25,3.42,3.42,0,0,0,.85,2.7,1,1,0,0,0,.65.23,1.53,1.53,0,0,0,1.32-.9v-3.85Z"/><path class="cls-1" d="M112,158.08l2.89.24a4.17,4.17,0,0,1-.73,1.65,5.18,5.18,0,0,1-7.26,0,5.48,5.48,0,0,1-1.06-3.53,6.1,6.1,0,0,1,1-3.74,3.84,3.84,0,0,1,1.68-1.26,5.35,5.35,0,0,1,1.95-.36,4.1,4.1,0,0,1,3.12,1.22,4.45,4.45,0,0,1,1.16,2.4c0,.23.08,1,.13,2.25h-5.79a3.65,3.65,0,0,0,.25,1.56,1.42,1.42,0,0,0,2.62-.42Zm-2.87-2.84H112a3,3,0,0,0-.2-1.13,1.26,1.26,0,0,0-1.24-.8,1.21,1.21,0,0,0-1.11.65A2.47,2.47,0,0,0,109.08,155.24Z"/><path class="cls-1" d="M130.57,147.34v13.83h-2.71l-.15-1a3.46,3.46,0,0,1-2.6,1.28,3.24,3.24,0,0,1-3-1.8,6.84,6.84,0,0,1-.76-3.36,6.53,6.53,0,0,1,.86-3.54,4.16,4.16,0,0,1,1.14-1.15,2.92,2.92,0,0,1,4.08.73v-5Zm-3.11,7.12a1.56,1.56,0,0,0-1.36-.87,1.09,1.09,0,0,0-.89.44,3.73,3.73,0,0,0-.56,2.25,3.42,3.42,0,0,0,.85,2.7.94.94,0,0,0,.65.23,1.5,1.5,0,0,0,1.31-.9v-3.85Z"/><path class="cls-1" d="M137,151.07a4.25,4.25,0,0,1,3.88,2,6,6,0,0,1,.8,3.26,6.67,6.67,0,0,1-.5,2.53,3.76,3.76,0,0,1-1.52,1.88,5.34,5.34,0,0,1-2.86.74,4.13,4.13,0,0,1-3.4-1.44,5.77,5.77,0,0,1-1.14-3.72,5.22,5.22,0,0,1,1.55-4.11A4.57,4.57,0,0,1,137,151.07Zm0,2.24c-1,0-1.44,1-1.44,2.9s.48,3,1.45,3a1,1,0,0,0,1-.52,5.3,5.3,0,0,0,.49-2.63C138.37,154.23,137.88,153.31,136.91,153.31Z"/><path class="cls-1" d="M163.6,147.34v13.83h-3.44V152l0-.58s0-.32,0-.92v-.59c0,.2-.13.61-.28,1.24l-.12.53-2.27,9.49h-2.7L152.57,152c-.19-.86-.32-1.55-.41-2.09v11.26h-3.44V147.34h5.46l1.69,7a15.92,15.92,0,0,1,.41,2.32c.06-.48.18-1.16.35-2l.05-.29,1.43-7Z"/><path class="cls-1" d="M169.05,147.34v2.78h-3.11v-2.78Zm0,4.07v9.76h-3.11v-9.76Z"/><path class="cls-1" d="M174.24,151.41v1.11a5,5,0,0,1,3.28-1.45,2.26,2.26,0,0,1,1.48.53,2.68,2.68,0,0,1,.86,1.89,12.05,12.05,0,0,1,.06,1.41v6.27h-3.11V154.9c0-.88-.34-1.32-1-1.32a2.36,2.36,0,0,0-1.53.76v6.83h-3.11v-9.76Z"/><path class="cls-1" d="M185.11,147.34v5.22a3.67,3.67,0,0,1,1.06-.85,4.31,4.31,0,0,1,2.09-.64,2.5,2.5,0,0,1,1.55.5,2.84,2.84,0,0,1,.93,2.05c0,.25,0,.6,0,1.07v6.48h-3.11v-6.25a1.6,1.6,0,0,0-.16-.82,1,1,0,0,0-.93-.52,2.07,2.07,0,0,0-1.47.78v6.81H182V147.34Z"/><path class="cls-1" d="M197.15,151.07a4.25,4.25,0,0,1,3.88,2,5.94,5.94,0,0,1,.8,3.26,6.66,6.66,0,0,1-.49,2.53,3.82,3.82,0,0,1-1.52,1.88,5.4,5.4,0,0,1-2.87.74,4.15,4.15,0,0,1-3.4-1.44,5.77,5.77,0,0,1-1.14-3.72,5.26,5.26,0,0,1,1.55-4.11A4.57,4.57,0,0,1,197.15,151.07Zm0,2.24c-1,0-1.44,1-1.44,2.9s.49,3,1.45,3a1,1,0,0,0,1-.52,5.3,5.3,0,0,0,.49-2.63C198.57,154.23,198.08,153.31,197.11,153.31Z"/></svg>