<?xml version="1.0" encoding="utf-8"?>
<!-- Generator: Adobe Illustrator 23.0.2, SVG Export Plug-In . SVG Version: 6.00 Build 0)  -->
<svg version="1.1" id="Layer_1" xmlns="http://www.w3.org/2000/svg" xmlns:xlink="http://www.w3.org/1999/xlink" x="0px" y="0px"
	 viewBox="0 0 16 16" style="enable-background:new 0 0 16 16;" xml:space="preserve">
<path d="M14,4.5V14c0,1.1-0.9,2-2,2H4c-1.1,0-2-0.9-2-2V2c0-1.1,0.9-2,2-2h5.5L14,4.5z M11,4.5c-0.8,0-1.5-0.7-1.5-1.5V1H4
	C3.4,1,3,1.4,3,2v12c0,0.6,0.4,1,1,1h8c0.6,0,1-0.4,1-1V4.5H11z"/>
<g>
	<path d="M3.8,12C3.8,12,3.8,11.9,3.8,12l1-1.5c0,0,0,0,0,0L3.8,9c0,0,0,0,0,0c0,0,0,0,0.1,0h0.8c0,0,0.1,0,0.1,0l0.5,0.8
		c0,0,0,0,0,0L5.8,9c0,0,0,0,0.1,0h0.8c0,0,0,0,0.1,0c0,0,0,0,0,0.1l-1,1.4c0,0,0,0,0,0l1,1.4c0,0,0,0,0,0c0,0,0,0-0.1,0H5.9
		c0,0-0.1,0-0.1,0l-0.5-0.8c0,0,0,0,0,0L4.7,12c0,0,0,0-0.1,0L3.8,12C3.8,12,3.8,12,3.8,12z"/>
	<path d="M7.2,12C7.2,12,7.2,11.9,7.2,12l0-4.1c0,0,0,0,0-0.1c0,0,0,0,0.1,0H8c0,0,0,0,0.1,0c0,0,0,0,0,0.1v2c0,0,0,0,0,0s0,0,0,0
		L8.9,9c0,0,0.1,0,0.1,0h0.8c0,0,0.1,0,0.1,0c0,0,0,0,0,0l-0.8,1c0,0,0,0,0,0l0.9,1.9c0,0,0,0,0,0c0,0,0,0-0.1,0H9.1
		c0,0-0.1,0-0.1-0.1l-0.6-1.4c0,0,0,0,0,0c0,0,0,0,0,0L8,11c0,0,0,0,0,0v0.9c0,0,0,0,0,0.1c0,0,0,0-0.1,0L7.2,12
		C7.2,12,7.2,12,7.2,12z"/>
	<path d="M12.1,9.6C12.1,9.6,12.1,9.6,12.1,9.6l-0.6,0c0,0,0,0,0,0v1.3c0,0.1,0,0.2,0.1,0.3c0.1,0.1,0.1,0.1,0.3,0.1H12
		c0,0,0,0,0.1,0c0,0,0,0,0,0.1v0.6c0,0,0,0.1-0.1,0.1c-0.2,0-0.3,0-0.4,0c-0.3,0-0.6-0.1-0.7-0.2c-0.2-0.1-0.2-0.3-0.3-0.6V9.6
		c0,0,0,0,0,0h-0.3c0,0,0,0-0.1,0c0,0,0,0,0-0.1V9c0,0,0,0,0-0.1c0,0,0,0,0.1,0h0.3c0,0,0,0,0,0V8.2c0,0,0,0,0-0.1c0,0,0,0,0.1,0
		h0.7c0,0,0,0,0.1,0c0,0,0,0,0,0.1v0.7c0,0,0,0,0,0h0.6c0,0,0,0,0.1,0c0,0,0,0,0,0.1L12.1,9.6C12.2,9.5,12.1,9.6,12.1,9.6z"/>
</g>
</svg>
